<svg width="41" height="41" viewBox="0 0 41 41" fill="none" xmlns="http://www.w3.org/2000/svg">
<path d="M2.73533 25.0328H4.40155C5.35367 25.0328 6.12641 25.8157 6.12641 26.7802V33.9377C6.12641 34.9022 5.35367 35.6851 4.40155 35.6851H2.73878C1.78665 35.6851 1.01392 34.9022 1.01392 33.9377V26.7802C1.01392 25.8157 1.78665 25.0328 2.73878 25.0328H2.73533Z" fill="#005275"/>
<path d="M38.264 25.0328H36.6013C35.6487 25.0328 34.8764 25.8152 34.8764 26.7802V33.9377C34.8764 34.9027 35.6487 35.6851 36.6013 35.6851H38.264C39.2166 35.6851 39.9889 34.9027 39.9889 33.9377V26.7802C39.9889 25.8152 39.2166 25.0328 38.264 25.0328Z" fill="#005275"/>
<path d="M37.9606 17.8964C37.9606 17.8964 34.9697 9.74295 32.8999 7.87671C30.9508 6.11881 26.3351 5.39888 20.9949 5.32199V5.315C20.8327 5.315 20.6706 5.315 20.5085 5.3185C20.3463 5.3185 20.1842 5.315 20.0221 5.315V5.32199C14.6784 5.39888 10.0662 6.11881 8.11361 7.87671C6.04378 9.73945 3.05287 17.8964 3.05287 17.8964C-2.23556 17.8964 3.05287 32.8892 3.05287 32.8892L20.0221 33.0325V33.0394H20.5085H20.9949V33.0325L37.9641 32.8892C37.9641 32.8892 43.2525 17.8964 37.9641 17.8964H37.9606Z" fill="#6A9BFF"/>
<path d="M30.7162 8.92514C28.1289 7.00299 20.5084 6.82825 20.5084 6.82825C20.5084 6.82825 12.888 7.00299 10.3007 8.92514C7.71339 10.8473 4.60864 17.7181 4.60864 17.7181H36.4116C36.4116 17.7181 33.3069 10.8473 30.7196 8.92514H30.7162Z" fill="#C9F0EF"/>
<path d="M8.83866 20.9685C8.83866 21.699 8.25214 22.2932 7.53106 22.2932H4.05333C3.3288 22.2932 2.74573 21.699 2.74573 20.9685C2.74573 20.238 3.33225 19.6438 4.05333 19.6438H7.53106C8.25559 19.6438 8.83866 20.238 8.83866 20.9685Z" fill="#FBD122"/>
<path d="M38.2752 20.9685C38.2752 21.699 37.6887 22.2932 36.9676 22.2932H33.4899C32.7653 22.2932 32.1823 21.699 32.1823 20.9685C32.1823 20.238 32.7688 19.6438 33.4899 19.6438H36.9676C37.6887 19.6438 38.2752 20.238 38.2752 20.9685Z" fill="#FBD122"/>
<path d="M30.1676 24.0194C30.1676 24.9699 29.3914 25.7458 28.4427 25.7458H12.574C11.6253 25.7458 10.8491 24.9699 10.8491 24.0194C10.8491 23.0688 11.6253 22.2929 12.574 22.2929H28.4427C29.3914 22.2929 30.1676 23.0688 30.1676 24.0194Z" fill="#F68671"/>
<path d="M24.623 27.3184H16.3937C15.6178 27.3184 14.9888 27.9474 14.9888 28.7233C14.9888 29.4993 15.6178 30.1283 16.3937 30.1283H24.623C25.3989 30.1283 26.0279 29.4993 26.0279 28.7233C26.0279 27.9474 25.3989 27.3184 24.623 27.3184Z" fill="white"/>
<path d="M7.30997 29.4223H4.95353C4.76299 29.4223 4.60852 29.5788 4.60852 29.7718V30.9427C4.60852 31.1358 4.76299 31.2923 4.95353 31.2923H7.30997C7.50052 31.2923 7.65499 31.1358 7.65499 30.9427V29.7718C7.65499 29.5788 7.50052 29.4223 7.30997 29.4223Z" fill="white"/>
<path d="M36.4049 29.4223H34.0485C33.858 29.4223 33.7035 29.5788 33.7035 29.7718V30.9427C33.7035 31.1358 33.858 31.2923 34.0485 31.2923H36.4049C36.5955 31.2923 36.75 31.1358 36.75 30.9427V29.7718C36.75 29.5788 36.5955 29.4223 36.4049 29.4223Z" fill="white"/>
<path d="M3.71207 16.079H1.19003C0.808935 16.079 0.5 16.392 0.5 16.7781V17.2709C0.5 17.657 0.808935 17.97 1.19003 17.97H3.71207C4.09316 17.97 4.4021 17.657 4.4021 17.2709V16.7781C4.4021 16.392 4.09316 16.079 3.71207 16.079Z" fill="#005275"/>
<path d="M39.81 16.079H37.288C36.9069 16.079 36.598 16.392 36.598 16.7781V17.2709C36.598 17.657 36.9069 17.97 37.288 17.97H39.81C40.1911 17.97 40.5001 17.657 40.5001 17.2709V16.7781C40.5001 16.392 40.1911 16.079 39.81 16.079Z" fill="#005275"/>
</svg>
