<svg width="41" height="41" viewBox="0 0 41 41" fill="none" xmlns="http://www.w3.org/2000/svg">
<path d="M37.5927 12.7752H9.30867C8.90576 12.7752 8.54868 13.0297 8.42838 13.4041L5.37313 20.8173C5.31966 20.9826 5.21845 21.1294 5.08097 21.24L0.834168 23.2753C0.62221 23.4463 0.5 23.6999 0.5 23.9674V29.2421C0.5 29.7381 0.913414 30.1404 1.42326 30.1404H37.5927C38.1025 30.1404 38.5159 29.7381 38.5159 29.2421V13.6735C38.5159 13.1775 38.1025 12.7752 37.5927 12.7752Z" fill="#EBF0F9"/>
<path d="M13.5411 29.9462C13.5411 31.545 12.2092 32.84 10.567 32.84C8.92479 32.84 7.5929 31.544 7.5929 29.9462C7.5929 28.3484 8.92479 27.0525 10.567 27.0525C12.2092 27.0525 13.5411 28.3484 13.5411 29.9462Z" fill="#005275"/>
<path d="M28.6008 29.9462C28.6008 31.545 27.2689 32.84 25.6267 32.84C23.9845 32.84 22.6526 31.544 22.6526 29.9462C22.6526 28.3484 23.9845 27.0525 25.6267 27.0525C27.2689 27.0525 28.6008 28.3484 28.6008 29.9462Z" fill="#005275"/>
<path d="M38.4769 12.7752H18.1146C17.7117 12.7752 17.3546 13.0297 17.2343 13.4041L14.159 20.8767C14.138 20.9408 14.1103 21.0021 14.076 21.0597C14.0196 21.1545 13.9356 21.2307 13.842 21.2901L10.7744 23.2159C10.6799 23.2753 10.5958 23.3524 10.5385 23.4481C10.4574 23.5837 10.4144 23.7389 10.4144 23.8987V29.3907C10.4144 29.805 10.7601 30.1413 11.1859 30.1413H38.8044C39.7401 30.1413 40.4991 29.4028 40.4991 28.4924V14.7437C40.4991 13.6568 39.593 12.7752 38.476 12.7752H38.4769Z" fill="#F4F8FF"/>
<path d="M1.42899 30.1402H10.4152V24.4484C10.4152 23.9496 9.99992 23.5446 9.48626 23.5446H1.42899C0.916278 23.5446 0.5 23.9487 0.5 24.4484V29.2373C0.5 29.7361 0.915323 30.1412 1.42899 30.1412V30.1402Z" fill="#E2E8F3"/>
<path d="M9.90836 14.0543H14.8512C15.4775 14.0543 15.9224 14.6488 15.7296 15.2294L13.6787 20.3554C13.5556 20.7261 13.2004 20.9769 12.8003 20.9769H7.87471C7.24934 20.9769 6.80442 20.3842 6.99537 19.8046L9.02902 14.6785C9.15123 14.3069 9.50641 14.0552 9.90836 14.0552V14.0543Z" fill="#52C0BC"/>
<path d="M20.0125 24.207H20.7238C20.8383 24.207 20.9319 24.116 20.9319 24.0045C20.9319 23.893 20.8383 23.802 20.7238 23.802H20.0125C19.8979 23.802 19.8043 23.893 19.8043 24.0045C19.8043 24.116 19.8979 24.207 20.0125 24.207Z" fill="#1D1A37"/>
<path d="M16.7519 19.8604L18.3015 15.1514C18.4228 14.778 18.7789 14.5234 19.1818 14.5234H21.3367C21.8465 14.5234 22.26 14.9257 22.26 15.4217L22.2523 20.1307C22.2523 20.6268 21.8389 21.029 21.3291 21.029H17.6322C17.0087 21.029 16.5638 20.4391 16.7519 19.8604Z" fill="#99D4D2"/>
<g opacity="0.58">
<path d="M22.2523 18.1139L19.7336 14.5234H20.401L22.2523 17.1636V18.1139Z" fill="#F5F5F5"/>
</g>
<path opacity="0.58" d="M22.2504 19.5454L18.692 14.4705L19.1818 14.5234L22.2523 18.9137L22.2504 19.5454Z" fill="#F5F5F5"/>
<g opacity="0.58">
<path d="M13.7904 20.0759L9.61523 14.1008C9.61523 14.1008 9.71453 14.0692 9.8081 14.059C9.86634 14.0525 10.2502 14.0543 10.2502 14.0543L14.0329 19.4702L13.7904 20.0759Z" fill="#F5F5F5"/>
</g>
<path opacity="0.58" d="M13.3378 20.8089C13.1994 20.6119 9.02991 14.6786 9.02991 14.6786C9.02991 14.6786 9.09101 14.504 9.1693 14.4148C9.22468 14.3526 9.24759 14.3256 9.24759 14.3256L13.5937 20.5367C13.5937 20.5367 13.5049 20.6751 13.3378 20.8089Z" fill="#F5F5F5"/>
<g opacity="0.58">
<path d="M8.71942 20.976L7.31592 18.9973L7.88591 17.5612L10.2805 20.976H8.71942Z" fill="#F5F5F5"/>
</g>
<path d="M10.4144 25.5762H40.5001" stroke="#E96248" stroke-miterlimit="10"/>
<path d="M34.4323 17.6893H32.5963V15.9029H29.7645V17.6893H27.9285V20.4446H29.7645V22.231H32.5963V20.4446H34.4323V17.6893Z" fill="#E96248"/>
<path d="M16.8274 12.1007V10.436C16.8274 9.77828 17.3754 9.24506 18.0514 9.24506C18.7274 9.24506 19.2754 9.77828 19.2754 10.436V12.0728L16.8274 12.1007Z" fill="#F68671"/>
<path d="M19.2754 12.0728V10.436C19.2754 9.77828 18.7274 9.24506 18.0514 9.24506C18.0514 9.24506 18.6634 9.57763 18.6634 10.6729V12.0803L19.2754 12.0728Z" fill="#E96248"/>
<path d="M17.5302 12.0914V11.3826C17.5302 11.1021 17.7631 10.8754 18.0515 10.8754C18.3398 10.8754 18.5728 11.1021 18.5728 11.3826V12.0812L17.5302 12.0924V12.0914Z" fill="#E96248"/>
<path d="M16.9563 11.992H19.1475C19.5132 11.992 19.8091 12.2809 19.8091 12.6358V12.7742H16.2937V12.6358C16.2937 12.28 16.5906 11.992 16.9554 11.992H16.9563Z" fill="#2A2849"/>
<path d="M18.0028 12.7751H19.8092V12.6367C19.8092 12.2809 19.5132 11.9929 19.1476 11.9929H18.0038V12.776L18.0028 12.7751Z" fill="#1D1A37"/>
<path d="M18.0514 9.05184C17.9722 9.05184 17.9082 8.9896 17.9082 8.9125V8.29938C17.9082 8.22227 17.9722 8.16003 18.0514 8.16003C18.1307 8.16003 18.1946 8.22227 18.1946 8.29938V8.9125C18.1946 8.9896 18.1307 9.05184 18.0514 9.05184Z" fill="#E96248"/>
<path d="M16.4054 10.1991H15.7753C15.696 10.1991 15.6321 10.1369 15.6321 10.0598C15.6321 9.98265 15.696 9.92041 15.7753 9.92041H16.4054C16.4847 9.92041 16.5487 9.98265 16.5487 10.0598C16.5487 10.1369 16.4847 10.1991 16.4054 10.1991Z" fill="#E96248"/>
<path d="M20.3133 10.1991H19.6831C19.6039 10.1991 19.5399 10.1369 19.5399 10.0598C19.5399 9.98265 19.6039 9.92041 19.6831 9.92041H20.3133C20.3925 9.92041 20.4565 9.98265 20.4565 10.0598C20.4565 10.1369 20.3925 10.1991 20.3133 10.1991Z" fill="#E96248"/>
<path d="M19.053 9.38347C19.0167 9.38347 18.9795 9.36953 18.9518 9.34259C18.8955 9.28778 18.8955 9.19953 18.9518 9.14565L19.3977 8.71182C19.454 8.65701 19.5447 8.65701 19.6001 8.71182C19.6564 8.76663 19.6564 8.85488 19.6001 8.90876L19.1542 9.34259C19.1265 9.36953 19.0893 9.38347 19.053 9.38347Z" fill="#E96248"/>
<path d="M16.9487 9.38347C16.9124 9.38347 16.8752 9.36953 16.8475 9.34259L16.4016 8.90876C16.3453 8.85395 16.3453 8.7657 16.4016 8.71182C16.458 8.65701 16.5487 8.65701 16.604 8.71182L17.0499 9.14565C17.1062 9.20046 17.1062 9.28871 17.0499 9.34259C17.0222 9.36953 16.985 9.38347 16.9487 9.38347Z" fill="#E96248"/>
<path d="M6.29821 25.0487H3.60004C3.20298 25.0487 2.8811 25.3619 2.8811 25.7482V27.8217C2.8811 28.208 3.20298 28.5212 3.60004 28.5212H6.29821C6.69527 28.5212 7.01715 28.208 7.01715 27.8217V25.7482C7.01715 25.3619 6.69527 25.0487 6.29821 25.0487Z" fill="#00A29C"/>
<path d="M6.29821 25.0487H3.60004C3.20298 25.0487 2.8811 25.3619 2.8811 25.7482V27.8217C2.8811 28.208 3.20298 28.5212 3.60004 28.5212H6.29821C6.69527 28.5212 7.01715 28.208 7.01715 27.8217V25.7482C7.01715 25.3619 6.69527 25.0487 6.29821 25.0487Z" stroke="#52C0BC"/>
<path d="M0.5 29.0087H40.4999V30.3604C40.4999 30.6985 40.2173 30.9735 39.8698 30.9735H1.11773C0.776882 30.9735 0.5 30.7041 0.5 30.3725V29.0087Z" fill="#548AF6"/>
<path d="M22.3478 29.9462C22.3478 31.545 21.016 32.84 19.3738 32.84C17.7316 32.84 16.3997 31.544 16.3997 29.9462C16.3997 28.3484 17.7316 27.0525 19.3738 27.0525C21.016 27.0525 22.3478 28.3484 22.3478 29.9462Z" fill="#005275"/>
<path d="M21.0771 29.9462C21.0771 30.8622 20.3142 31.6044 19.3728 31.6044C18.4314 31.6044 17.6686 30.8622 17.6686 29.9462C17.6686 29.0303 18.4314 28.288 19.3728 28.288C20.3142 28.288 21.0771 29.0303 21.0771 29.9462Z" fill="#006A97"/>
<path d="M37.4074 29.9462C37.4074 31.545 36.0755 32.84 34.4333 32.84C32.7911 32.84 31.4592 31.544 31.4592 29.9462C31.4592 28.3484 32.7911 27.0525 34.4333 27.0525C36.0755 27.0525 37.4074 28.3484 37.4074 29.9462Z" fill="#005275"/>
<path d="M36.1367 29.9462C36.1367 30.8622 35.3738 31.6044 34.4324 31.6044C33.491 31.6044 32.7281 30.8622 32.7281 29.9462C32.7281 29.0303 33.491 28.288 34.4324 28.288C35.3738 28.288 36.1367 29.0303 36.1367 29.9462Z" fill="#006A97"/>
<path d="M10.6683 30.9735H1.17406C0.801706 30.9735 0.5 30.6799 0.5 30.3176V29.0087H10.6683V30.9735Z" fill="#407BF1"/>
<path d="M2.10776 27.7631H1.20169C1.0783 27.7631 0.978271 27.8604 0.978271 27.9805V28.2192C0.978271 28.3393 1.0783 28.4366 1.20169 28.4366H2.10776C2.23115 28.4366 2.33117 28.3393 2.33117 28.2192V27.9805C2.33117 27.8604 2.23115 27.7631 2.10776 27.7631Z" fill="#FBD122"/>
<path d="M9.06418 27.7631H8.15811C8.03472 27.7631 7.93469 27.8604 7.93469 27.9805V28.2192C7.93469 28.3393 8.03472 28.4366 8.15811 28.4366H9.06418C9.18757 28.4366 9.2876 28.3393 9.2876 28.2192V27.9805C9.2876 27.8604 9.18757 27.7631 9.06418 27.7631Z" fill="#FBD122"/>
<path d="M2.61195 24.8442C2.61195 25.2549 2.27015 25.5884 1.84719 25.5884C1.80995 25.5884 1.50443 25.5856 1.4691 25.5809C1.09865 25.5289 1.08337 25.2196 1.08337 24.8452C1.08337 24.4708 1.10915 24.1503 1.48819 24.1066C1.51779 24.1029 1.81663 24.1011 1.84719 24.1011C2.26919 24.1011 2.61195 24.4336 2.61195 24.8452V24.8442Z" fill="#726A6A"/>
<path d="M1.59704 25.5884C2.01941 25.5884 2.36181 25.2552 2.36181 24.8443C2.36181 24.4333 2.01941 24.1002 1.59704 24.1002C1.17467 24.1002 0.832275 24.4333 0.832275 24.8443C0.832275 25.2552 1.17467 25.5884 1.59704 25.5884Z" fill="white"/>
<path d="M9.83864 24.8442C9.83864 25.2549 9.49683 25.5884 9.07387 25.5884C9.03664 25.5884 8.73111 25.5856 8.69578 25.5809C8.32533 25.5289 8.31006 25.2196 8.31006 24.8452C8.31006 24.4708 8.33584 24.1503 8.71488 24.1066C8.74448 24.1029 9.04332 24.1011 9.07387 24.1011C9.49588 24.1011 9.83864 24.4336 9.83864 24.8452V24.8442Z" fill="#726A6A"/>
<path d="M8.82373 25.5884C9.2461 25.5884 9.5885 25.2552 9.5885 24.8443C9.5885 24.4333 9.2461 24.1002 8.82373 24.1002C8.40136 24.1002 8.05896 24.4333 8.05896 24.8443C8.05896 25.2552 8.40136 25.5884 8.82373 25.5884Z" fill="white"/>
</svg>
