<svg width="48" height="48" viewBox="0 0 48 48" fill="none" xmlns="http://www.w3.org/2000/svg">
<path d="M22.3421 17.5997C22.209 17.7626 22.0925 17.9413 21.9428 18.0886C21.0443 18.9505 20.1391 19.803 19.2372 20.6587C18.9045 20.9752 18.5184 21.1915 18.0293 21.204C16.8812 21.2354 16.1357 20.1603 16.6216 19.1793C16.7347 18.9537 16.8945 18.7625 17.0775 18.5869C18.9777 16.8004 20.8779 15.0077 22.778 13.2211C23.5667 12.4815 24.4286 12.4815 25.2173 13.2211C27.1341 15.0202 29.0476 16.8255 30.9611 18.6308C31.5302 19.1668 31.6799 19.8657 31.3671 20.4299C30.8746 21.3137 29.6799 21.483 28.8746 20.759C28.2057 20.1572 27.5634 19.5241 26.9112 18.9066C26.5451 18.5587 26.1791 18.2108 25.8097 17.8629C25.7464 17.8034 25.6799 17.6906 25.59 17.7219C25.4669 17.7626 25.5235 17.8943 25.5235 17.982C25.5202 20.759 25.5202 23.5328 25.5168 26.3097C25.5168 26.4664 25.5168 26.6231 25.5168 26.7798C25.5002 27.6731 24.9045 28.2686 24.0326 28.2686C23.0842 28.2686 22.4985 27.7076 22.4819 26.783C22.4819 26.6639 22.4819 26.5479 22.4819 26.4288C22.4819 23.6331 22.4819 20.8373 22.4819 18.0416C22.4819 17.9256 22.4819 17.8097 22.4819 17.6937C22.4353 17.6624 22.392 17.6279 22.3454 17.5965L22.3421 17.5997Z" fill="#407BF1"/>
<path d="M24.012 35.3255C22.002 35.3255 19.992 35.3474 17.982 35.3192C16.2449 35.2941 14.9005 34.5764 14.0419 33.1315C13.6892 32.5423 13.5061 31.8935 13.4928 31.2196C13.4728 30.2386 13.4695 29.2576 13.4928 28.2766C13.5128 27.2298 14.368 26.628 15.4462 26.8693C16.0785 27.0104 16.5111 27.5526 16.5178 28.2578C16.5278 29.1197 16.5244 29.9848 16.5211 30.8467C16.5211 31.0128 16.5344 31.1789 16.571 31.3419C16.7274 32.0565 17.21 32.442 17.992 32.4608C18.2715 32.4671 18.5544 32.4608 18.8339 32.4608C22.4679 32.4608 26.1019 32.4608 29.7359 32.4608C29.9422 32.4608 30.1485 32.4671 30.3548 32.4169C31.0703 32.2445 31.463 31.812 31.4763 31.1162C31.4929 30.1948 31.4763 29.2733 31.4896 28.3518C31.4996 27.7344 31.7159 27.2141 32.3582 26.9383C33.3798 26.4995 34.4913 27.1263 34.5046 28.1763C34.5179 29.3015 34.5579 30.4298 34.4547 31.5581C34.2683 33.6487 32.4281 35.2973 30.1951 35.3161C28.1319 35.3349 26.0719 35.3192 24.0087 35.3192L24.012 35.3255Z" fill="#407BF1"/>
</svg>
