<svg width="41" height="41" viewBox="0 0 41 41" fill="none" xmlns="http://www.w3.org/2000/svg">
<path d="M23.6399 2.82349V10.662C23.6399 11.0104 24.2837 12.0279 24.5621 12.2902C24.9539 12.6601 26.0108 13.1724 26.5251 13.1724H33.8648V35.6633C33.8648 36.6582 32.3715 38.0733 31.3875 38.1768L9.71983 38.1747C8.33491 37.9349 7.24459 36.7986 7.13525 35.36L7.1393 5.53982C7.06439 4.53464 8.60015 2.82349 9.51735 2.82349H23.6399ZM27.249 17.6183C26.9726 17.4585 26.6405 17.3949 26.3257 17.3693C22.5799 17.0732 18.4626 17.6009 14.6764 17.3693C13.7885 17.44 13.3876 17.7146 13.3087 18.6491C12.9877 22.4823 13.5618 26.7653 13.3087 30.6467C13.3158 31.119 13.6802 31.7604 14.1692 31.825H26.7337C27.2955 31.8404 27.6762 31.1508 27.6944 30.6467C27.4393 26.7674 28.0163 22.4802 27.6944 18.6491C27.666 18.3192 27.5456 17.7874 27.251 17.6173L27.249 17.6183Z" fill="#6A9BFF"/>
<path d="M33.2573 11.123H26.3226C26.187 11.123 25.5634 10.4929 25.5634 10.3545V3.4382L33.2573 11.123Z" fill="#407BF1"/>
<path d="M19.4893 19.4227H15.3386V21.5745H19.4893V19.4227Z" fill="#407BF1"/>
<path d="M25.6646 19.4227H21.5139V21.5745H25.6646V19.4227Z" fill="#407BF1"/>
<path d="M19.4893 27.7223H15.3386V29.874H19.4893V27.7223Z" fill="#407BF1"/>
<path d="M25.6646 27.7223H21.5139V29.874H25.6646V27.7223Z" fill="#407BF1"/>
<path d="M19.4893 23.6238H15.3386V25.6731H19.4893V23.6238Z" fill="#407BF1"/>
<path d="M25.6646 23.6238H21.5139V25.6731H25.6646V23.6238Z" fill="#407BF1"/>
</svg>
