<svg width="25" height="25" viewBox="0 0 25 25" fill="none" xmlns="http://www.w3.org/2000/svg">
<path d="M20.4861 9.13139C20.4861 8.10879 19.6898 7.32803 18.639 7.3254C17.58 7.32277 16.521 7.32015 15.4593 7.32803C15.2508 7.32803 15.1858 7.25968 15.1668 7.06778C15.1045 6.4947 14.6847 6.09775 14.0997 6.0294C13.7476 5.98734 13.3928 6.00837 13.0408 6.011C12.3284 6.01626 11.6134 5.97157 10.9011 6.03203C10.2999 6.08198 9.88277 6.48944 9.82048 7.07567C9.79881 7.27808 9.71485 7.3254 9.51714 7.3254C8.43649 7.31752 7.35584 7.31752 6.2752 7.3254C5.31914 7.33329 4.50391 8.12719 4.5012 9.05778C4.4985 11.7812 4.5012 14.502 4.5012 17.2255C4.5012 17.6776 4.67183 18.0641 4.9833 18.3953C5.40039 18.8369 5.93665 18.9947 6.5352 18.9947C8.52316 18.9947 10.5111 18.9947 12.4991 18.9947C14.487 18.9947 16.4614 18.9815 18.4413 18.9999C19.7576 19.0104 20.5186 18.0693 20.4997 17.0152C20.4563 14.3864 20.4861 11.7602 20.4861 9.13139ZM14.3895 10.9085C15.565 10.9032 16.7431 10.9032 17.9186 10.9085C18.314 10.9085 18.5442 11.2187 18.4142 11.5394C18.3329 11.7418 18.1731 11.818 17.9565 11.818C17.3552 11.818 16.7512 11.818 16.15 11.818C15.5623 11.818 14.9718 11.818 14.3841 11.818C14.0374 11.818 13.8641 11.6682 13.8614 11.3816C13.8587 11.0977 14.0537 10.9111 14.3868 10.9085H14.3895ZM9.22192 10.9032C9.99923 10.9032 10.6249 11.5157 10.6222 12.2754C10.6222 13.0325 9.9884 13.645 9.20567 13.6424C8.42566 13.6424 7.79731 13.0246 7.80002 12.2649C7.80273 11.5052 8.43108 10.9032 9.22192 10.9058V10.9032ZM11.0257 17.002C10.419 17.002 9.81235 17.002 9.20567 17.002C8.60983 17.002 8.01398 17.002 7.41814 17.002C7.0173 17.002 6.71396 16.7181 6.73021 16.3343C6.76812 15.3617 7.22855 14.6361 8.12503 14.1945C8.81025 13.858 9.52797 13.8422 10.2213 14.1577C11.172 14.5862 11.6622 15.3327 11.6974 16.3501C11.7109 16.7155 11.4049 17.002 11.0257 17.002ZM13.5933 8.61614C13.2276 8.61089 12.8593 8.61614 12.4937 8.61614C12.1334 8.61614 11.7732 8.61089 11.413 8.61614C11.2586 8.61877 11.2018 8.56357 11.2045 8.41636C11.2099 8.13507 11.2099 7.85116 11.2045 7.56988C11.2045 7.43581 11.2559 7.37272 11.3995 7.37535C12.1334 7.37798 12.8674 7.37535 13.5987 7.37535C13.7314 7.37535 13.7856 7.43318 13.7829 7.55937C13.7829 7.84853 13.7801 8.1377 13.7829 8.42687C13.7829 8.56357 13.7314 8.61877 13.5878 8.61614H13.5933ZM14.4031 13.4847C14.9827 13.4794 15.565 13.4847 16.1446 13.4847C16.6619 13.4847 17.1819 13.4847 17.6992 13.4847C17.7479 13.4847 17.7967 13.4847 17.8454 13.4847C18.2165 13.4873 18.4548 13.6687 18.4602 13.95C18.4657 14.2286 18.2219 14.4205 17.8563 14.4232C17.6477 14.4232 17.4419 14.4232 17.2333 14.4232C16.2989 14.4232 15.3673 14.4232 14.4329 14.4232C14.1079 14.4232 13.8993 14.2707 13.8695 14.0288C13.8289 13.7055 14.0374 13.4899 14.4031 13.4873V13.4847ZM17.9023 16.9994C17.3146 17.0047 16.7269 16.9994 16.1364 16.9994C15.5623 16.9994 14.9881 17.002 14.4139 16.9994C14.0645 16.9968 13.8641 16.8154 13.8668 16.5262C13.8695 16.2581 14.0347 16.0951 14.3272 16.0898C14.812 16.0846 15.2968 16.0872 15.7816 16.0872C16.4885 16.0872 17.1927 16.0872 17.8996 16.0872C18.249 16.0872 18.4494 16.2476 18.4602 16.521C18.4684 16.7891 18.2354 16.9941 17.9023 16.9994Z" fill="#FF8500"/>
</svg>
