<svg width="25" height="25" viewBox="0 0 25 25" fill="none" xmlns="http://www.w3.org/2000/svg">
<path d="M8.4811 20.4994C6.7165 20.5443 4.82604 19.0087 4.54357 16.8653C4.37284 15.5706 4.69934 14.398 5.60241 13.4319C6.4951 12.4769 7.43347 11.5656 8.376 10.6597C8.4786 10.5612 8.60779 10.3851 8.72161 10.4387C8.85038 10.4997 8.75567 10.6999 8.74529 10.8374C8.70001 11.4306 8.76273 12.0129 8.92308 12.5832C8.96254 12.7241 8.9372 12.8134 8.83667 12.9126C8.26551 13.4767 7.69683 14.0433 7.13231 14.6144C6.45688 15.2973 6.24461 16.1135 6.55533 17.0169C6.86563 17.9191 7.52984 18.445 8.48567 18.5592C9.19184 18.6435 9.81659 18.4346 10.325 17.9349C11.1346 17.1395 11.933 16.3324 12.7352 15.5295C13.7267 14.5372 13.7533 13.213 12.8037 12.172C12.3131 11.6345 12.2583 10.9118 12.6641 10.344C12.9221 9.98301 12.991 9.96307 13.3649 10.1969C14.5558 10.9413 15.2462 12.0038 15.3841 13.4094C15.5158 14.749 15.0684 15.8929 14.1483 16.8462C13.3076 17.7173 12.4614 18.585 11.5716 19.4066C10.7749 20.1422 9.82282 20.4998 8.48068 20.4998L8.4811 20.4994Z" fill="#407BF1"/>
<path d="M20.4977 8.60885C20.5043 9.93181 20.0573 10.9308 19.2353 11.7653C18.4244 12.5885 17.5994 13.3977 16.7778 14.2102C16.6652 14.3215 16.5373 14.4183 16.4139 14.5188C16.3728 14.552 16.3288 14.6077 16.2698 14.5736C16.212 14.5404 16.2349 14.4731 16.2411 14.4212C16.2897 14.0137 16.2839 13.6074 16.2436 13.1991C16.217 12.9287 16.1618 12.665 16.0845 12.407C16.0446 12.2737 16.0716 12.1889 16.1663 12.0951C16.7471 11.5206 17.3261 10.9449 17.8994 10.363C19.0974 9.14717 18.6554 7.13884 17.0486 6.56313C16.1813 6.25244 15.3692 6.41526 14.7012 7.05411C13.8314 7.88651 12.9865 8.7455 12.1441 9.60616C11.3241 10.444 11.3141 11.8355 12.1025 12.7032C12.2795 12.898 12.4498 13.0949 12.5366 13.3537C12.7215 13.9044 12.5586 14.515 12.1245 14.9055C12.0228 14.9969 11.9414 14.9707 11.845 14.9184C10.9677 14.4432 10.3205 13.7524 9.93209 12.8332C9.53497 11.8936 9.49219 10.9275 9.78463 9.9505C10.053 9.05371 10.6146 8.35547 11.2817 7.71995C11.9276 7.10478 12.5649 6.47881 13.1759 5.82959C15.3243 3.54711 19.1547 4.31887 20.2426 7.26138C20.42 7.74072 20.5151 8.23252 20.4981 8.60802L20.4977 8.60885Z" fill="#407BF1"/>
<path d="M14.9343 19.6811C14.9301 19.9548 14.7702 20.1534 14.5463 20.207C14.3328 20.2585 14.0844 20.1463 14.0013 19.9291C13.8679 19.5802 13.7728 19.218 13.7097 18.8499C13.6731 18.6381 13.8385 18.4209 14.0449 18.3577C14.2734 18.2879 14.5259 18.3644 14.6181 18.5708C14.7826 18.9376 14.8499 19.3351 14.9338 19.6803L14.9343 19.6811Z" fill="#407BF1"/>
<path d="M6.66788 10.8048C6.6683 11.113 6.40618 11.3519 6.10502 11.2879C5.77478 11.2173 5.44704 11.1272 5.12552 11.0233C4.86175 10.9386 4.73214 10.6736 4.80567 10.431C4.88085 10.1814 5.1276 10.026 5.38888 10.0854C5.69835 10.156 6.00616 10.2379 6.30981 10.3305C6.55365 10.4044 6.66747 10.5706 6.66788 10.8048Z" fill="#407BF1"/>
<path d="M10.8006 6.66079C10.5705 6.66038 10.4135 6.53951 10.3483 6.3314C10.2473 6.00907 10.1588 5.68135 10.0895 5.35071C10.0367 5.09858 10.2066 4.85974 10.448 4.79494C10.6773 4.73346 10.9394 4.85101 11.0183 5.0911C11.1309 5.43129 11.2293 5.77896 11.2979 6.13036C11.3539 6.41863 11.1026 6.66412 10.8002 6.66079H10.8006Z" fill="#407BF1"/>
<path d="M19.6851 14.9251C19.3441 14.8436 18.9461 14.7793 18.5814 14.6098C18.3625 14.508 18.2886 14.2521 18.3708 14.0191C18.4448 13.8102 18.6766 13.6573 18.898 13.708C19.2407 13.7865 19.5825 13.8762 19.9161 13.9871C20.1475 14.064 20.2654 14.3149 20.216 14.5388C20.1678 14.7577 19.9655 14.9201 19.6851 14.9251Z" fill="#407BF1"/>
<path d="M7.80896 8.36474C7.72422 8.36972 7.60292 8.29288 7.49658 8.18862C7.29428 7.99007 7.09157 7.79194 6.89551 7.58716C6.67285 7.35413 6.66496 7.06587 6.86684 6.86441C7.06873 6.66295 7.36199 6.6696 7.58921 6.88975C7.80771 7.10117 8.02372 7.31592 8.23266 7.53648C8.37846 7.69017 8.42167 7.87418 8.32488 8.07148C8.23598 8.25342 8.08977 8.35643 7.80854 8.36432L7.80896 8.36474Z" fill="#407BF1"/>
<path d="M16.6436 17.1527C16.6474 16.9222 16.7467 16.7805 16.917 16.6888C17.0931 16.5936 17.2771 16.6044 17.4209 16.7361C17.6855 16.9787 17.9438 17.23 18.1831 17.4975C18.3493 17.6836 18.3135 17.9685 18.1407 18.1396C17.9683 18.3108 17.6925 18.3399 17.4981 18.1741C17.2252 17.9411 16.9726 17.684 16.7375 17.4119C16.6677 17.3313 16.6387 17.2304 16.6441 17.1531L16.6436 17.1527Z" fill="#407BF1"/>
</svg>
