<svg width="41" height="41" viewBox="0 0 41 41" fill="none" xmlns="http://www.w3.org/2000/svg">
<path d="M20.5 37.5182C29.8888 37.5182 37.5 29.8988 37.5 20.4999C37.5 11.101 29.8888 3.48169 20.5 3.48169C11.1112 3.48169 3.5 11.101 3.5 20.4999C3.5 29.8988 11.1112 37.5182 20.5 37.5182Z" fill="#6A9BFF"/>
<mask id="mask0_672_103146" style="mask-type:luminance" maskUnits="userSpaceOnUse" x="3" y="3" width="35" height="35">
<path d="M20.5 37.5182C29.8888 37.5182 37.5 29.8988 37.5 20.4999C37.5 11.101 29.8888 3.48169 20.5 3.48169C11.1112 3.48169 3.5 11.101 3.5 20.4999C3.5 29.8988 11.1112 37.5182 20.5 37.5182Z" fill="white"/>
</mask>
<g mask="url(#mask0_672_103146)">
<path d="M28.1995 15.1731C28.1995 19.5353 24.891 23.0733 20.4939 23.0733C16.0968 23.0733 12.5321 19.5353 12.5321 15.1731C12.5321 10.811 16.0968 7.27301 20.4939 7.27301C24.891 7.27301 28.1995 10.811 28.1995 15.1731Z" fill="#006A97"/>
<path d="M27.1414 18.4302C27.0591 18.4302 26.9768 18.4394 26.8975 18.4547V16.3117C26.8975 12.6944 23.9671 9.76392 20.3567 9.76392C16.7463 9.76392 13.8159 12.6975 13.8159 16.3117V18.4516C13.7427 18.4394 13.6665 18.4302 13.5902 18.4302C12.8767 18.4302 12.2973 19.0011 12.2973 19.7032C12.2973 20.4053 12.8767 20.9761 13.5902 20.9761C13.6665 20.9761 13.7427 20.967 13.8159 20.9547V21.1898C13.8159 23.7723 15.31 26.0007 17.4812 27.0691V30.43C13.883 37.686 27.117 36.3154 23.2566 30.2865V27.063C25.4155 25.9946 26.9036 23.7692 26.9036 21.1928V20.9547C26.9829 20.97 27.0652 20.9792 27.1475 20.9792C27.8611 20.9792 28.4404 20.4083 28.4404 19.7062C28.4404 19.0041 27.8611 18.4333 27.1475 18.4333L27.1414 18.4302Z" fill="#FFDAB5"/>
<path d="M27.5226 12.7341C26.1382 9.26942 23.1255 8.21017 20.3658 8.50322C17.6031 8.21017 14.5934 9.26942 13.209 12.7341C12.2973 15.0175 13.2395 18.4638 13.2395 18.4638L14.5081 18.4699C14.5081 18.4699 13.7274 14.0895 15.9504 13.4606C17.4263 13.0455 17.6397 15.3502 20.3262 15.3471C22.8998 15.341 23.2596 13.25 24.7782 13.4606C26.9646 13.7659 26.2205 18.4699 26.2205 18.4699L27.489 18.4638C27.489 18.4638 28.4343 15.0144 27.5195 12.7341H27.5226Z" fill="#006A97"/>
<path d="M32.1911 33.5834L25.0038 30.6987L22.0521 32.631L19.0546 32.6432L15.7339 30.7017L8.90644 33.6353C8.90034 33.7543 15.0539 42.4878 20.5366 42.4878C26.0193 42.4878 32.1972 33.7085 32.1911 33.5895V33.5834Z" fill="#FFA748"/>
<path d="M21.5916 32.4844H19.0912V32.8965H21.5916V32.4844Z" fill="#FF8500"/>
<path d="M20.564 32.4844L23.2505 29.4684L25.0038 30.6986L22.1436 34.7281L20.564 32.4844Z" fill="white"/>
<path d="M20.1737 32.4844L17.4781 29.4684L15.7339 30.6986L18.5972 34.7281L20.1737 32.4844Z" fill="white"/>
</g>
</svg>
