<svg width="41" height="41" viewBox="0 0 41 41" fill="none" xmlns="http://www.w3.org/2000/svg">
<path d="M20.2538 18.5908C25.4732 18.5908 29.7044 14.541 29.7044 9.54529C29.7044 4.54961 25.4732 0.499817 20.2538 0.499817C15.0343 0.499817 10.8031 4.54961 10.8031 9.54529C10.8031 14.541 15.0343 18.5908 20.2538 18.5908Z" fill="#005275"/>
<path d="M28.0907 12.1932C27.9947 12.1932 27.8987 12.2038 27.8099 12.2216V9.74787C27.8099 5.57167 24.4263 2.18451 20.2501 2.18451C16.0739 2.18451 12.6867 5.56812 12.6867 9.74787V12.2216C12.6014 12.2074 12.5161 12.1967 12.4237 12.1967C11.5991 12.1967 10.9274 12.8543 10.9274 13.6682C10.9274 14.4821 11.5956 15.1396 12.4237 15.1396C12.5019 15.1396 12.5765 15.129 12.6512 15.1183V15.2C12.6512 15.6585 12.6974 16.1028 12.772 16.5364C12.7791 16.572 12.7862 16.6075 12.7933 16.6466C12.8075 16.7248 12.8218 16.7994 12.8395 16.8776C13.3051 19.2127 14.8441 21.1605 16.9233 22.1805V25.9586C12.7294 34.407 28.1582 32.9569 23.6586 25.9373V22.1414C25.0731 21.4235 26.2318 20.2755 26.964 18.868C26.9817 18.8324 26.9995 18.8005 27.0173 18.7649C27.0351 18.7294 27.0528 18.6974 27.0706 18.6618C27.6002 17.624 27.9058 16.4511 27.9058 15.2036V15.129C27.9698 15.1361 28.0338 15.1467 28.0978 15.1467C28.9223 15.1467 29.5941 14.4892 29.5941 13.6753C29.5941 12.8614 28.9259 12.2038 28.0978 12.2038L28.0907 12.1932Z" fill="#FFDAB4"/>
<path d="M15.0931 3.04814C16.8809 11.5285 25.7131 11.5321 28.3219 8.81663C28.9865 8.12711 28.4676 6.55971 28.4676 6.55971C28.4676 6.55971 24.0355 2.63941 22.2228 1.94989C20.5381 1.31013 14.7235 1.27815 15.0931 3.04459V3.04814Z" fill="#005275"/>
<path d="M31.7445 29.0401L25.7095 26.6197L22.269 28.8695L18.7752 28.8838L14.9047 26.6233L9.20727 29.0686C8.01661 29.5804 7.65052 31.0838 8.46799 32.0861C10.9133 35.093 15.9105 40.3461 20.5061 40.3461C25.1017 40.3461 30.0705 35.1072 32.5336 32.079C33.3617 31.0625 32.9672 29.5342 31.7481 29.0437L31.7445 29.0401Z" fill="#C7D4D9"/>
<mask id="mask0_672_103422" style="mask-type:luminance" maskUnits="userSpaceOnUse" x="8" y="26" width="25" height="15">
<path d="M31.7445 29.0401L25.7095 26.6197L22.269 28.8695L18.7752 28.8838L14.9047 26.6233L9.20727 29.0686C8.01661 29.5804 7.65052 31.0838 8.46799 32.0861C10.9133 35.093 15.9105 40.3461 20.5061 40.3461C25.1017 40.3461 30.0705 35.1072 32.5336 32.079C33.3617 31.0625 32.9672 29.5342 31.7481 29.0437L31.7445 29.0401Z" fill="white"/>
</mask>
<g mask="url(#mask0_672_103422)">
<path d="M5.11285 29.9465L14.5635 26.2892L25.7095 26.6162L34.7479 29.7119L32.5692 36.7741L20.7087 41.75L9.06514 35.4413L5.11285 29.9465Z" fill="#548AF6"/>
</g>
<path d="M21.1849 30.9487H19.3545L18.7041 28.3399H21.8602L21.1849 30.9487Z" fill="#E96248"/>
<path d="M20.0618 28.3399L16.9164 24.8284L14.7767 26.673L18.2208 30.9487L20.0618 28.3399Z" fill="white"/>
<path d="M20.5167 28.3399L23.648 24.8284L25.7094 26.6161L22.3543 30.9487L20.5167 28.3399Z" fill="white"/>
<path d="M21.9349 34.4461L21.1921 30.9132L20.2289 30.3516L19.3439 30.9025L18.5477 35.2955L17.9613 38.0216C17.908 38.2704 17.9897 38.5299 18.1745 38.7076L19.8592 40.2999C20.14 40.5664 20.5807 40.5664 20.8651 40.2999L22.5462 38.7147C22.7346 38.537 22.8163 38.2704 22.7559 38.0181L21.9313 34.4461H21.9349Z" fill="#F68671"/>
</svg>
