<svg width="25" height="25" viewBox="0 0 25 25" fill="none" xmlns="http://www.w3.org/2000/svg">
<path d="M14.9097 18.7186C13.3511 18.7186 11.7925 18.7191 10.2339 18.7186C9.61896 18.7186 9.36864 18.4717 9.36722 17.868C9.36675 17.4763 9.36439 17.0841 9.36817 16.6924C9.37242 16.2899 9.5944 16.0327 9.99444 15.9626C10.0946 15.9452 10.1975 15.9358 10.2996 15.9358C13.3851 15.9344 16.4707 15.9344 19.5563 15.9349C19.7707 15.9349 19.9856 15.9508 20.1693 16.0722C20.387 16.216 20.499 16.423 20.498 16.6877C20.4966 17.1029 20.5004 17.5186 20.4976 17.9338C20.4943 18.4355 20.2118 18.7172 19.7027 18.7181C18.1049 18.7205 16.5071 18.7191 14.9088 18.7191L14.9097 18.7186Z" fill="white"/>
<path d="M14.9277 6.28069C16.4938 6.28069 18.0605 6.28022 19.6266 6.28069C20.243 6.28069 20.4985 6.53744 20.499 7.15344C20.499 7.52963 20.5018 7.90581 20.498 8.282C20.4938 8.70473 20.2614 8.9737 19.8434 9.04095C19.7353 9.05835 19.6243 9.06446 19.5147 9.06446C16.4608 9.06587 13.4068 9.0654 10.3529 9.06493C10.0913 9.06493 9.83102 9.05317 9.61754 8.87072C9.45365 8.7306 9.36533 8.55661 9.36722 8.33607C9.371 7.91286 9.3658 7.48966 9.36816 7.06645C9.371 6.55578 9.64304 6.28257 10.1579 6.28163C11.7476 6.27928 13.3379 6.28069 14.9277 6.28069Z" fill="white"/>
<path d="M14.9324 11.1201C16.4986 11.1201 18.0642 11.1201 19.6304 11.1201C20.234 11.1201 20.4976 11.3802 20.4985 11.9731C20.499 12.3568 20.5018 12.741 20.4976 13.1247C20.4924 13.5818 20.2019 13.8766 19.7433 13.8771C16.5326 13.8794 13.3218 13.8794 10.1111 13.8771C9.66005 13.8771 9.37336 13.5869 9.36864 13.143C9.36438 12.7513 9.36675 12.3596 9.36769 11.9679C9.36863 11.3783 9.62321 11.1206 10.2112 11.1206C11.7849 11.1196 13.3591 11.1206 14.9329 11.1206L14.9324 11.1201Z" fill="white"/>
<path d="M7.27207 7.67134C7.27207 7.89047 7.27727 8.11007 7.27065 8.32873C7.25932 8.70491 7.04159 8.97905 6.66752 9.02937C6.15271 9.09896 5.63081 9.09802 5.116 9.03031C4.7306 8.98 4.5105 8.70162 4.50531 8.31227C4.49964 7.87401 4.49822 7.43529 4.50578 6.9975C4.51287 6.58229 4.80475 6.29169 5.22463 6.28369C5.66482 6.27523 6.10548 6.27523 6.54519 6.28369C6.97971 6.29169 7.26074 6.57947 7.27113 7.01396C7.27632 7.23309 7.27207 7.45222 7.27207 7.67134Z" fill="white"/>
<path d="M4.50389 17.3318C4.50389 17.1126 4.49917 16.8935 4.50483 16.6744C4.51475 16.2991 4.73249 16.0217 5.10513 15.9705C5.61995 15.8999 6.14137 15.9018 6.65666 15.9681C7.04347 16.0175 7.26451 16.2935 7.27065 16.6833C7.27726 17.1216 7.27821 17.5603 7.27065 17.9981C7.26309 18.4185 6.97782 18.7067 6.557 18.7157C6.11681 18.7251 5.67615 18.7241 5.23643 18.7161C4.80286 18.7086 4.51522 18.4185 4.50531 17.9896C4.50011 17.7705 4.50436 17.5514 4.50436 17.3322L4.50389 17.3318Z" fill="white"/>
<path d="M7.2716 12.5221C7.2716 12.7412 7.27822 12.9604 7.26971 13.179C7.2546 13.5801 6.96461 13.8688 6.56031 13.8759C6.11257 13.8844 5.66482 13.8844 5.21755 13.8759C4.80334 13.8684 4.51193 13.5721 4.50531 13.1564C4.49823 12.7187 4.49823 12.2804 4.50531 11.8426C4.51193 11.4175 4.80901 11.1274 5.24022 11.1213C5.67191 11.1152 6.10407 11.1152 6.53622 11.1213C6.9698 11.1274 7.25932 11.4133 7.27113 11.8412C7.27727 12.0679 7.27208 12.2945 7.27208 12.5216L7.2716 12.5221Z" fill="white"/>
</svg>
