<svg width="25" height="25" viewBox="0 0 25 25" fill="none" xmlns="http://www.w3.org/2000/svg">
<path d="M16.0343 19.8232C15.2724 19.6801 14.6415 19.9333 14.0867 20.4481C13.9007 20.6208 13.6812 20.7572 13.4564 20.8792C12.8174 21.2261 12.1784 21.2266 11.539 20.8806C11.1655 20.6783 10.8407 20.4055 10.5069 20.1481C10.2104 19.9189 9.89087 19.8017 9.51113 19.8179C9.08164 19.8361 8.64976 19.8438 8.22027 19.8237C7.45073 19.7878 6.89881 19.4194 6.58554 18.7012C6.43154 18.3485 6.32728 17.9806 6.23067 17.6117C6.11588 17.1743 5.86001 16.8681 5.47261 16.6451C5.14164 16.4547 4.81977 16.247 4.52467 16.0001C3.86896 15.4518 3.72644 14.7613 3.97418 13.9728C4.09375 13.5929 4.24154 13.2221 4.37976 12.8484C4.4668 12.6134 4.46489 12.3818 4.37784 12.1479C4.25254 11.812 4.12532 11.4766 4.01053 11.1368C3.66809 10.1272 3.91392 9.3985 4.79633 8.79513C4.98716 8.66451 5.1713 8.51761 5.37743 8.41809C5.93318 8.15014 6.19097 7.68266 6.31388 7.10992C6.38084 6.79699 6.49084 6.49698 6.62907 6.20893C6.94999 5.53906 7.50191 5.21178 8.22888 5.17924C8.64259 5.16058 9.0582 5.16488 9.47191 5.18546C9.877 5.20603 10.2199 5.08785 10.5327 4.83521C10.7929 4.62516 11.0626 4.42467 11.3415 4.24093C12.1062 3.73805 12.8815 3.72944 13.6472 4.23854C13.9323 4.42802 14.2073 4.63377 14.4756 4.84669C14.7764 5.08498 15.104 5.20508 15.4924 5.1845C15.8659 5.16488 16.2414 5.16536 16.6158 5.17158C17.5963 5.18737 18.1917 5.62471 18.5084 6.55679C18.6007 6.82809 18.6891 7.10178 18.758 7.38026C18.8685 7.82812 19.1335 8.13961 19.5299 8.36402C19.8556 8.54824 20.1737 8.74872 20.4573 8.9961C21.1125 9.5674 21.2914 10.2143 21.0145 11.0426C20.8882 11.4201 20.7452 11.7923 20.608 12.1665C20.5247 12.3933 20.5267 12.6177 20.6104 12.8441C20.7376 13.1881 20.8677 13.5307 20.9853 13.8776C21.3196 14.8642 21.0786 15.5968 20.2258 16.1872C19.9637 16.3686 19.6969 16.5442 19.4233 16.7073C19.0895 16.9064 18.8867 17.1911 18.7776 17.5609C18.6604 17.9576 18.5634 18.361 18.3902 18.7409C18.0865 19.406 17.5662 19.7596 16.8483 19.8199C16.5795 19.8423 16.3069 19.8237 16.0357 19.8237L16.0343 19.8232ZM7.92614 12.711C8.02514 12.7397 8.04905 12.833 8.09497 12.9015C8.44267 13.4163 8.78463 13.9345 9.13138 14.4503C9.30547 14.7092 9.525 14.8097 9.75026 14.7432C10.0205 14.6632 10.1759 14.4699 10.1778 14.1513C10.185 13.0522 10.1836 11.9526 10.1778 10.8536C10.1769 10.6488 10.1085 10.4593 9.92435 10.3387C9.5336 10.0832 9.08929 10.3502 9.07303 10.8593C9.06012 11.2574 9.07159 11.656 9.06825 12.0541C9.06777 12.1349 9.09216 12.2249 9.02855 12.2995C8.93194 12.2493 8.90085 12.1627 8.8535 12.0919C8.51106 11.5833 8.17292 11.0718 7.83096 10.5626C7.65496 10.3004 7.43495 10.1942 7.21782 10.2559C6.93612 10.3363 6.77972 10.5339 6.77781 10.8636C6.77159 11.955 6.77111 13.0465 6.77781 14.1374C6.7802 14.5063 7.02603 14.7709 7.3326 14.769C7.64061 14.7671 7.87592 14.5039 7.88405 14.1331C7.89266 13.7431 7.88405 13.3527 7.88835 12.9622C7.88931 12.8795 7.85918 12.7886 7.92661 12.711H7.92614ZM16.9143 11.9718C16.8913 11.9732 16.8679 11.9747 16.8449 11.9761C16.8315 11.9569 16.8124 11.9397 16.8052 11.9187C16.7096 11.6383 16.5618 11.3943 16.2337 11.3895C15.92 11.3852 15.7545 11.6024 15.6617 11.8818C15.6473 11.9249 15.6277 11.9833 15.5675 11.9651C15.5158 11.9493 15.5163 11.8895 15.5091 11.8431C15.4699 11.5995 15.4359 11.355 15.3915 11.1124C15.3556 10.9177 15.3585 10.7143 15.2623 10.532C15.1471 10.3129 14.8831 10.1913 14.6621 10.2607C14.3952 10.3445 14.2097 10.5871 14.2489 10.8301C14.4344 11.9775 14.6234 13.1249 14.8185 14.2704C14.8658 14.5494 15.0835 14.7441 15.3312 14.7685C15.5407 14.7891 15.7717 14.6326 15.8779 14.3809C15.9673 14.1685 16.0395 13.9484 16.1232 13.7331C16.1447 13.6785 16.1486 13.5924 16.2337 13.5996C16.2983 13.6048 16.3069 13.6771 16.326 13.7269C16.4054 13.9355 16.4748 14.1474 16.5599 14.3537C16.6756 14.635 16.9114 14.7967 17.1381 14.7652C17.3997 14.7288 17.5867 14.536 17.6384 14.2273C17.8268 13.1043 18.0129 11.9804 18.1951 10.8564C18.2286 10.6507 18.1444 10.476 17.9818 10.355C17.8211 10.2354 17.6427 10.1952 17.4442 10.2909C17.2151 10.4014 17.1352 10.5957 17.0989 10.8263C17.0396 11.2086 16.976 11.59 16.9138 11.9718H16.9143ZM10.7924 12.4852C10.7924 13.0273 10.7876 13.5694 10.7938 14.1116C10.7986 14.5231 11.0229 14.7676 11.4199 14.7762C11.9455 14.7881 12.4721 14.7867 12.9977 14.7762C13.3531 14.7695 13.6085 14.5302 13.6142 14.2302C13.62 13.924 13.3545 13.6824 12.9867 13.6699C12.7481 13.6618 12.5084 13.668 12.2693 13.6675C11.8881 13.667 11.8953 13.667 11.9015 13.278C11.9039 13.1125 11.9632 13.0512 12.1273 13.0555C12.4061 13.0632 12.6849 13.0608 12.9638 13.0555C13.1785 13.0517 13.3775 12.9948 13.5061 12.8063C13.7625 12.4302 13.5099 11.9775 13.0202 11.9493C12.7184 11.9321 12.4147 11.9369 12.112 11.9459C11.8628 11.9536 11.9068 11.7823 11.9049 11.6368C11.903 11.4876 11.8709 11.323 12.1167 11.3325C12.4032 11.3435 12.6907 11.3397 12.9772 11.332C13.1919 11.3263 13.3889 11.2655 13.5133 11.0718C13.7649 10.6794 13.4927 10.2373 12.9824 10.2248C12.4884 10.2134 11.9943 10.2191 11.5003 10.2224C11.0263 10.2253 10.7958 10.4555 10.7929 10.9292C10.7895 11.4474 10.7919 11.9656 10.7929 12.4838L10.7924 12.4852Z" fill="white"/>
</svg>
