<svg width="25" height="25" viewBox="0 0 25 25" fill="none" xmlns="http://www.w3.org/2000/svg">
<path d="M12.5163 16.3798C15.3768 16.3798 18.2372 16.3798 21.0977 16.3798C21.3679 16.3798 21.5032 16.5134 21.5035 16.7806C21.5035 16.8208 21.5035 16.8616 21.5035 16.9019C21.5016 17.6335 21.1112 18.0298 20.3881 18.0313C19.6307 18.0328 18.8733 18.0313 18.1158 18.0313C13.6437 18.0313 9.17165 18.023 4.69956 18.0376C3.75107 18.0405 3.40717 17.4316 3.51455 16.5419C3.52761 16.4327 3.59194 16.3881 3.69302 16.3842C3.78154 16.3808 3.87005 16.3798 3.95856 16.3798C6.81082 16.3798 9.66355 16.3798 12.5158 16.3798H12.5163Z" fill="white"/>
<path d="M12.5032 20.217C11.1412 20.217 9.77868 20.217 8.41665 20.217C8.33587 20.217 8.25461 20.2204 8.17529 20.2112C7.96296 20.1864 7.89427 20.0831 7.99488 19.8997C8.22414 19.482 8.46985 19.074 8.70782 18.6611C8.79005 18.518 8.92789 18.549 9.05317 18.549C11.1649 18.5481 13.2771 18.5481 15.3889 18.5481C15.5906 18.5481 15.7927 18.5597 15.993 18.5447C16.1811 18.5306 16.2904 18.6077 16.378 18.7683C16.5603 19.1011 16.7572 19.4262 16.9473 19.7546C17.1528 20.1093 17.0943 20.216 16.6871 20.2165C15.2926 20.218 13.8982 20.217 12.5037 20.217H12.5032Z" fill="white"/>
<path d="M10.4245 10.5172C10.4245 10.6986 10.4976 10.7908 10.6838 10.7864C10.8366 10.783 10.99 10.7825 11.1428 10.7864C11.3367 10.7908 11.4122 10.7035 11.4098 10.506C11.4016 9.89955 11.4069 9.29262 11.4069 8.68569C11.4069 8.07148 11.403 7.45776 11.4093 6.84355C11.4112 6.66549 11.345 6.58787 11.1655 6.59612C11.0054 6.60388 10.8444 6.60485 10.6848 6.59612C10.4956 6.58544 10.424 6.66938 10.4245 6.85471C10.4279 8.07536 10.4274 9.29602 10.425 10.5172H10.4245Z" fill="white"/>
<path d="M8.83156 10.5429C8.83059 10.7093 8.89637 10.7879 9.06179 10.7865C9.22189 10.785 9.38247 10.7836 9.54257 10.7874C9.71476 10.7913 9.79311 10.719 9.78973 10.5381C9.78199 10.1728 9.78731 9.80743 9.78731 9.44211C9.78731 9.06223 9.78441 8.68235 9.78876 8.30247C9.79021 8.1545 9.72975 8.08706 9.58126 8.09046C9.41391 8.09434 9.24607 8.09676 9.07872 8.089C8.90411 8.08075 8.82962 8.14625 8.83108 8.32964C8.83736 9.06756 8.8364 9.80549 8.83204 10.5434L8.83156 10.5429Z" fill="white"/>
<path d="M12.0462 9.03596C12.0462 9.54004 12.0496 10.0446 12.0443 10.5487C12.0424 10.717 12.1159 10.7922 12.2765 10.7937C12.4438 10.7951 12.6117 10.7927 12.779 10.7956C12.9551 10.7981 13.0262 10.7083 13.0257 10.538C13.0242 9.54392 13.0238 8.55032 13.0257 7.55623C13.0257 7.39225 12.9599 7.3122 12.7911 7.31705C12.6238 7.3219 12.4559 7.3219 12.2886 7.31705C12.113 7.3122 12.0409 7.38885 12.0429 7.56739C12.0491 8.05691 12.0453 8.54644 12.0453 9.03645L12.0462 9.03596Z" fill="white"/>
<path d="M21.5034 5.87765C21.5034 5.19407 21.102 4.78362 20.4263 4.78314C15.1474 4.78217 9.86856 4.78217 4.58969 4.78314C3.91303 4.78362 3.50964 5.19358 3.50916 5.87474C3.5077 9.08406 3.50819 12.2934 3.50916 15.5027C3.50916 15.8632 3.51061 15.8636 3.87337 15.8636C6.75077 15.8636 9.62769 15.8636 12.5051 15.8636C15.3825 15.8636 18.2594 15.8636 21.1368 15.8636C21.503 15.8636 21.5044 15.8632 21.5044 15.5061C21.5044 12.2968 21.5054 9.08745 21.5044 5.87814L21.5034 5.87765ZM15.8749 7.42191C15.8749 7.33021 15.9489 7.2555 16.0408 7.2555H16.952C17.0434 7.2555 17.1179 7.18127 17.1179 7.08909V6.17505C17.1179 6.08336 17.1919 6.00865 17.2838 6.00865H17.8846C17.976 6.00865 18.0505 6.08287 18.0505 6.17505V7.08909C18.0505 7.18079 18.1245 7.2555 18.2164 7.2555H19.1276C19.219 7.2555 19.2935 7.32973 19.2935 7.42191V8.02447C19.2935 8.11617 19.2195 8.19088 19.1276 8.19088H18.2164C18.1249 8.19088 18.0505 8.26511 18.0505 8.35729V9.27133C18.0505 9.36302 17.9765 9.43774 17.8846 9.43774H17.2838C17.1924 9.43774 17.1179 9.36351 17.1179 9.27133V8.35729C17.1179 8.2656 17.0439 8.19088 16.952 8.19088H16.0408C15.9494 8.19088 15.8749 8.11665 15.8749 8.02447V7.42191ZM5.43178 6.00913C6.72126 6.00865 8.01027 6.00913 9.29975 6.00913C10.597 6.00913 11.8947 6.00865 13.1919 6.00913C13.5431 6.00913 13.5822 6.04843 13.5822 6.39871C13.5832 7.91822 13.5832 9.43774 13.5822 10.9577C13.5822 11.3284 13.529 11.3818 13.1658 11.3818C10.5873 11.3818 8.00833 11.3822 5.42984 11.3818C5.07531 11.3818 5.04242 11.3497 5.04242 10.9936C5.04145 9.45763 5.04145 7.92211 5.04242 6.3861C5.04242 6.0266 5.06128 6.00913 5.43178 6.00913ZM13.5711 12.1585C13.5672 12.3293 13.4449 12.4035 13.159 12.404C12.2057 12.405 11.2528 12.404 10.2995 12.404C9.37666 12.404 8.4538 12.404 7.53094 12.404C7.45549 12.404 7.3781 12.4079 7.30458 12.3948C7.18366 12.3729 7.08886 12.3084 7.08789 12.1716C7.08644 12.028 7.17254 11.9489 7.30942 11.9295C7.37616 11.9198 7.44533 11.9222 7.51304 11.9222C9.39649 11.9222 11.2804 11.9222 13.1639 11.9222C13.4695 11.9222 13.5745 11.9843 13.5706 12.159L13.5711 12.1585ZM13.3477 14.5935C13.2649 14.6003 13.1813 14.5993 13.0981 14.5993C11.8333 14.5993 10.5684 14.5993 9.30362 14.5993C8.03106 14.5993 6.75899 14.5993 5.48643 14.5993C5.40324 14.5993 5.3186 14.6027 5.23734 14.5877C5.12174 14.5663 5.04677 14.4916 5.04242 14.3694C5.03806 14.2359 5.114 14.1554 5.23879 14.1282C5.30409 14.1142 5.37422 14.119 5.44242 14.119C8.01752 14.119 10.5926 14.119 13.1677 14.119C13.2282 14.119 13.2896 14.1161 13.3491 14.1244C13.4865 14.1433 13.5764 14.2277 13.5798 14.364C13.5832 14.5071 13.487 14.5823 13.3477 14.594V14.5935ZM13.1421 13.5014C11.8623 13.5014 10.582 13.5014 9.30217 13.5014C8.02961 13.5014 6.75754 13.5014 5.48498 13.5014C5.40179 13.5014 5.31666 13.5058 5.23589 13.4903C5.12077 13.4684 5.04483 13.3937 5.04193 13.2705C5.03855 13.1375 5.114 13.056 5.23976 13.0308C5.31328 13.0163 5.39066 13.0206 5.46612 13.0206C8.02623 13.0206 10.5859 13.0206 13.146 13.0206C13.4521 13.0206 13.5842 13.0949 13.5832 13.2632C13.5822 13.4306 13.4521 13.5014 13.1421 13.5014ZM19.6263 12.9745C19.3119 13.4437 18.8964 13.81 18.4413 14.1341C18.1956 14.3092 17.9378 14.4645 17.6742 14.611C17.6147 14.644 17.5586 14.6464 17.4986 14.6129C17.0468 14.3631 16.6154 14.0836 16.2275 13.7406C15.8676 13.4223 15.5561 13.0643 15.3414 12.6291C15.3022 12.5495 15.307 12.5408 15.3985 12.5408C15.6035 12.5408 15.8086 12.5393 16.0132 12.5413C16.0882 12.5423 16.139 12.5141 16.1714 12.4457C16.2173 12.3492 16.2667 12.2541 16.315 12.159C16.3232 12.1425 16.3257 12.1163 16.3489 12.1177C16.3702 12.1187 16.3745 12.1439 16.3832 12.1604C16.5254 12.4457 16.6676 12.731 16.8098 13.0167C16.8195 13.0357 16.8292 13.0551 16.8388 13.074C16.8669 13.1274 16.908 13.1599 16.9714 13.1584C17.0318 13.157 17.0686 13.123 17.0947 13.0711C17.1953 12.8678 17.2969 12.665 17.3985 12.4622C17.4483 12.3628 17.4976 12.2628 17.5479 12.1638C17.5571 12.1459 17.559 12.1168 17.5856 12.1182C17.6074 12.1192 17.6103 12.1449 17.6185 12.1614C17.6669 12.257 17.7158 12.3521 17.7617 12.4486C17.7922 12.5122 17.8401 12.5408 17.9092 12.5408C18.2638 12.5408 18.6183 12.5408 18.9724 12.5403C19.0638 12.5403 19.1194 12.4865 19.1184 12.4054C19.1175 12.3273 19.0589 12.2754 18.968 12.2745C18.8142 12.2735 18.6604 12.2745 18.5066 12.2745C18.359 12.2745 18.212 12.2706 18.0645 12.2759C17.9948 12.2783 17.9605 12.2502 17.9324 12.191C17.8618 12.0421 17.7859 11.896 17.7129 11.7485C17.6863 11.6952 17.6505 11.6583 17.5856 11.6568C17.5179 11.6559 17.4802 11.6927 17.4526 11.749C17.3041 12.0479 17.1547 12.3463 17.0052 12.6446C16.9951 12.665 16.9917 12.6965 16.9641 12.6961C16.9404 12.6961 16.9375 12.666 16.9283 12.6475C16.7798 12.3511 16.6313 12.0542 16.4843 11.7573C16.4558 11.6995 16.4209 11.6573 16.3498 11.6573C16.2797 11.6573 16.242 11.6966 16.2135 11.7548C16.1385 11.9086 16.0601 12.061 15.9856 12.2148C15.9639 12.2594 15.9353 12.2764 15.886 12.2759C15.6809 12.2735 15.4758 12.2735 15.2712 12.2759C15.2195 12.2764 15.1934 12.2575 15.1803 12.208C14.9985 11.5234 15.1948 10.7748 15.8304 10.3751C16.3271 10.0626 16.9598 10.1233 17.3869 10.5269C17.4381 10.5754 17.4865 10.6269 17.5334 10.6797C17.5837 10.7365 17.5847 10.7375 17.6326 10.6807C17.7985 10.4837 17.9977 10.3319 18.242 10.2475C18.6633 10.1019 19.0584 10.1723 19.4149 10.4289C19.8289 10.7273 20.0302 11.1445 20.0485 11.6535C20.0664 12.1459 19.8933 12.5762 19.6253 12.9755L19.6263 12.9745Z" fill="white"/>
<path d="M5.7927 10.7802C5.98907 10.785 6.18544 10.785 6.38182 10.7812C6.51144 10.7787 6.58254 10.7113 6.58206 10.575C6.58109 10.1514 6.58109 9.72837 6.58109 9.30482C6.58109 9.16946 6.51289 9.10445 6.37843 9.10494C6.18931 9.10591 6.00019 9.10639 5.81107 9.10445C5.665 9.103 5.59826 9.17432 5.59971 9.31889C5.60164 9.52314 5.59971 9.72788 5.59971 9.93213C5.59971 10.1437 5.60116 10.3557 5.59922 10.5672C5.59826 10.7001 5.65968 10.7773 5.79221 10.7802H5.7927Z" fill="white"/>
<path d="M7.21528 9.02687C7.21528 9.53095 7.21866 10.0355 7.21334 10.5396C7.21141 10.7079 7.28493 10.7831 7.44551 10.7846C7.61286 10.786 7.7807 10.7836 7.94805 10.7865C8.12411 10.789 8.19521 10.6992 8.19473 10.5289C8.19327 9.53483 8.19279 8.54123 8.19473 7.54714C8.19473 7.38315 8.12895 7.3031 7.96014 7.30796C7.79279 7.31281 7.62495 7.31281 7.4576 7.30796C7.28202 7.3031 7.20996 7.37976 7.21189 7.5583C7.21818 8.04782 7.21431 8.53734 7.21431 9.02735L7.21528 9.02687Z" fill="white"/>
</svg>
