<svg width="25" height="25" viewBox="0 0 25 25" fill="none" xmlns="http://www.w3.org/2000/svg">
<path d="M11.4973 3.48759C20.7028 2.72598 25.3609 13.863 18.2687 19.5381C12.9648 23.7816 4.91287 20.9521 3.48779 14.4077C2.36576 9.25589 6.11637 3.93267 11.4979 3.48759H11.4973ZM13.3004 14.9867C14.5962 13.4619 16.5682 11.4561 15.3191 9.32713C14.1949 7.41132 10.5431 7.40061 9.56882 9.45888C9.51831 9.56493 9.28152 10.1857 9.28152 10.2467V11.0233H11.6168C11.5164 9.55636 13.617 9.65866 13.2401 11.2049C13.0745 11.8856 12.2023 12.9113 11.7477 13.4822C10.9173 14.5256 9.98646 15.5019 9.14792 16.5421L9.1186 17.0755H15.853V14.9867H13.3004Z" fill="white"/>
</svg>
