<svg width="25" height="25" viewBox="0 0 25 25" fill="none" xmlns="http://www.w3.org/2000/svg">
<path d="M18.924 9.39349V12.9981C16.9346 12.2253 14.5877 13.0433 13.4523 14.7803C12.7771 15.8136 12.6013 16.9325 12.7854 18.1407H5.19818C4.81219 18.1407 3.99503 17.4193 3.99503 17.0593V9.39349H18.924ZM9.43183 11.1338C8.99672 11.2295 8.98052 11.8951 9.44459 12.0138C9.62531 12.06 10.3045 12.0624 10.4901 12.0254C10.962 11.9321 11.0018 11.2717 10.5775 11.1449C10.4312 11.1011 9.58848 11.0987 9.43133 11.1333L9.43183 11.1338ZM12.3783 11.1338C11.954 11.2271 11.9383 11.8639 12.3567 11.9999C12.6062 12.0811 13.4597 12.083 13.6669 11.9148C13.912 11.7163 13.8423 11.2612 13.5697 11.1492C13.4572 11.1031 12.5207 11.1031 12.3778 11.1343L12.3783 11.1338ZM15.1579 11.9259C15.3244 12.0777 16.1484 12.0672 16.3836 12.0254C16.9101 11.9326 16.8605 11.2415 16.4833 11.1333C16.364 11.0992 15.4609 11.104 15.3253 11.1333C14.9762 11.2097 14.9192 11.7081 15.1584 11.9254L15.1579 11.9259ZM6.58599 13.2995C5.94169 13.3975 6.01388 14.1559 6.67537 14.2439C7.08346 14.2982 8.04844 14.2996 7.91486 13.6585C7.81861 13.1971 6.94399 13.2447 6.5855 13.2995H6.58599ZM10.7553 13.4475C10.496 13.1904 9.18186 13.1558 9.10476 13.6503C9.00016 14.3203 9.98528 14.3179 10.4312 14.2266C10.8039 14.1502 11.048 13.7373 10.7553 13.4475ZM12.1623 13.4456C11.8823 13.7421 12.1112 14.1492 12.4878 14.2266C12.9573 14.3232 14.1006 14.2766 13.7711 13.5475C13.6056 13.1812 12.395 13.1995 12.1623 13.4461V13.4456ZM6.26973 15.6088C6.02075 15.8756 6.15875 16.325 6.53541 16.3999C6.71416 16.4355 7.36534 16.435 7.5441 16.3999C8.02929 16.3043 8.00866 15.6117 7.64329 15.5079C7.51561 15.4714 6.68666 15.4762 6.52215 15.4959C6.43915 15.506 6.32473 15.5502 6.26973 15.6093V15.6088ZM9.38272 15.5074C9.01833 15.6117 8.98445 16.2697 9.44509 16.3879C9.62531 16.4341 10.305 16.4365 10.4906 16.3995C10.9846 16.3019 10.9694 15.6156 10.5898 15.5074C10.4862 15.4776 9.48585 15.4776 9.38223 15.5074H9.38272Z" fill="white"/>
<path d="M7.18702 5.1641H9.34779C9.33649 4.73635 9.27756 4.19854 9.86343 4.19902C10.4493 4.1995 10.385 4.72577 10.3791 5.1641H12.5398C12.5339 4.72625 12.4534 4.19902 13.0555 4.19902C13.6575 4.19902 13.577 4.72625 13.5711 5.1641H15.7319C15.7324 4.85602 15.6518 4.30475 16.0614 4.21344C16.7578 4.05772 16.8108 4.65032 16.7632 5.16458C17.4806 5.092 18.1313 5.30059 18.5792 5.86243C18.6691 5.9749 18.9239 6.41803 18.9239 6.53434V8.43278H3.99496V6.53434C3.99496 6.41034 4.27194 5.95856 4.36721 5.84129C4.81508 5.29098 5.45054 5.09585 6.15574 5.16458C6.09779 4.65705 6.17833 4.0606 6.8575 4.21344C7.28474 4.30956 7.18161 4.84737 7.18702 5.1641ZM7.18702 5.21216H6.20485V6.7261C6.20485 6.8179 6.42878 7.04716 6.53633 7.07455C6.82312 7.14809 7.18702 6.90586 7.18702 6.62998V5.21216ZM10.33 5.21216H9.3969V6.77417C9.3969 6.9222 9.70481 7.09089 9.86343 7.09089C10.022 7.09089 10.33 6.9222 10.33 6.77417V5.21216ZM13.522 5.21216H12.5889V6.77417C12.5889 6.9222 12.8969 7.09089 13.0555 7.09089C13.2141 7.09089 13.522 6.9222 13.522 6.77417V5.21216ZM16.7141 5.21216H15.781V6.77417C15.781 6.9222 16.0889 7.09089 16.2475 7.09089C16.4062 7.09089 16.7141 6.9222 16.7141 6.77417V5.21216Z" fill="white"/>
<path d="M19.8771 19.795C17.431 22.0957 13.4291 20.2165 13.6668 16.9132C13.8471 14.4087 16.7047 12.8833 18.9907 14.0132C21.2438 15.1268 21.7034 18.0763 19.8766 19.7945L19.8771 19.795ZM19.0462 16.7469C18.7034 16.6878 18.2045 16.7907 17.843 16.7469V15.6175C17.843 15.4012 17.597 15.1378 17.3686 15.1268C17.2012 15.1186 16.933 15.2863 16.8829 15.4469C16.823 15.6396 16.8294 17.0012 16.8599 17.253C16.8952 17.5448 17.1447 17.6793 17.4256 17.7087C17.7423 17.7418 18.921 17.7457 19.1694 17.6366C19.6424 17.4294 19.5191 16.8291 19.0462 16.7469Z" fill="white"/>
</svg>
