<svg width="24" height="24" viewBox="0 0 24 24" fill="none" xmlns="http://www.w3.org/2000/svg">
<path d="M5.76094 11.9988C5.90681 11.5121 5.62999 11.2437 5.25206 10.9979C4.92883 10.7861 4.63047 10.5371 4.32713 10.2978C3.98401 10.0278 3.90279 9.67531 4.12159 9.29857C4.63213 8.41736 5.15095 7.54262 5.6764 6.6695C5.87863 6.3348 6.2433 6.22 6.61791 6.35905C7.14171 6.5547 7.66219 6.76004 8.17935 6.97024C8.31196 7.0236 8.41473 7.02683 8.53242 6.94113C8.75619 6.78106 8.99654 6.64524 9.25015 6.53368C9.36453 6.48355 9.42254 6.41403 9.43912 6.28629C9.51205 5.74463 9.59327 5.20297 9.68112 4.66293C9.75406 4.21505 10.0176 4.00162 10.4867 4C11.4962 4 12.504 4 13.5135 4C13.9826 4 14.2411 4.21181 14.3157 4.66454C14.4036 5.20459 14.4848 5.74625 14.561 6.28791C14.5776 6.40594 14.6274 6.4787 14.7351 6.52559C15.002 6.64363 15.2523 6.78753 15.491 6.95245C15.6004 7.02845 15.6915 7.02036 15.8059 6.97509C16.3181 6.76974 16.8336 6.56925 17.3491 6.37199C17.7734 6.2103 18.1199 6.32348 18.3503 6.70668C18.8558 7.5507 19.3564 8.39634 19.8537 9.2436C20.1007 9.66561 20.0278 10.0181 19.6349 10.3253C19.2189 10.6503 18.7995 10.9704 18.3768 11.2857C18.2691 11.3666 18.2293 11.4555 18.2343 11.5865C18.2442 11.863 18.2442 12.1411 18.2343 12.4176C18.2293 12.5501 18.2757 12.6358 18.3818 12.7151C18.8094 13.0352 19.2354 13.3602 19.6565 13.6901C20.0195 13.9746 20.1007 14.3287 19.8719 14.7233C19.368 15.5915 18.8542 16.455 18.3354 17.3151C18.1149 17.6806 17.7552 17.7857 17.3441 17.6272C16.8286 17.4283 16.3148 17.2294 15.8026 17.0225C15.6865 16.9756 15.5954 16.9756 15.4876 17.05C15.2556 17.21 15.0119 17.3539 14.7517 17.4655C14.6257 17.5189 14.5793 17.6062 14.561 17.7372C14.4865 18.2788 14.4036 18.8205 14.3174 19.3605C14.2544 19.7664 13.9792 19.9976 13.5549 19.9976C12.5172 20.0008 11.4796 20.0008 10.442 19.9976C10.0309 19.9976 9.75406 19.7696 9.68941 19.3735C9.59824 18.8205 9.51702 18.2643 9.44077 17.708C9.4242 17.59 9.37613 17.5189 9.26839 17.472C9.01478 17.3604 8.77277 17.2278 8.55065 17.0678C8.42799 16.9788 8.32191 16.9707 8.17935 17.0306C7.70197 17.2278 7.21961 17.4138 6.73726 17.5997C6.20849 17.8034 5.89686 17.6983 5.61342 17.2214C5.13272 16.4129 4.65036 15.6028 4.17463 14.7912C3.89285 14.3093 3.97075 13.9763 4.41996 13.6367C4.80783 13.344 5.18742 13.0417 5.58026 12.7539C5.72613 12.6472 5.79409 12.5291 5.76923 12.3497C5.75265 12.2332 5.76591 12.1152 5.76591 11.9972L5.76094 11.9988ZM14.6887 12.0085C14.7318 10.5759 13.4687 9.35678 12.0067 9.37295C10.4917 9.38912 9.30983 10.5209 9.30817 11.9939C9.30817 13.4718 10.4817 14.6246 11.9901 14.6262C13.5052 14.6262 14.6854 13.4815 14.687 12.0101L14.6887 12.0085Z" fill="white"/>
</svg>
