<svg width="24" height="24" viewBox="0 0 24 24" fill="none" xmlns="http://www.w3.org/2000/svg">
<path d="M19.0481 4.04688H4.7203C3.92989 4.04688 3.28906 4.69369 3.28906 5.49149V18.5085C3.28906 19.3063 3.92989 19.9531 4.7203 19.9531H19.279C20.0694 19.9531 20.7102 19.3063 20.7102 18.5085V5.49149C20.7102 4.69369 20.0694 4.04688 19.279 4.04688H19.0481ZM5.75141 16.0232V7.97684C5.75141 7.17904 6.39224 6.53223 7.18265 6.53223H7.52123C8.31164 6.53223 8.95247 7.17904 8.95247 7.97684V16.0232C8.95247 16.821 8.31164 17.4678 7.52123 17.4678H7.18265C6.39224 17.4678 5.75141 16.821 5.75141 16.0232ZM11.4148 16.0232V7.97684C11.4148 7.17904 12.0556 6.53223 12.8461 6.53223H16.8166C17.607 6.53223 18.2478 7.17904 18.2478 7.97684V16.0232C18.2478 16.821 17.607 17.4678 16.8166 17.4678H12.8461C12.0556 17.4678 11.4148 16.821 11.4148 16.0232Z" fill="white"/>
</svg>
