<svg width="25" height="24" viewBox="0 0 25 24" fill="none" xmlns="http://www.w3.org/2000/svg">
<path d="M14.9016 6.00631C13.2729 6.00631 11.6436 6.00487 10.0148 6.00727C9.65462 6.00775 9.29724 6.03082 8.97869 6.23704C8.57407 6.49902 8.35094 6.873 8.32568 7.36476C8.31585 7.55655 8.30977 7.75028 8.32427 7.94111C8.34064 8.15887 8.25083 8.21703 8.05203 8.21174C7.6315 8.19973 7.2105 8.21174 6.78951 8.20742C6.23753 8.20213 5.7997 8.41556 5.46009 8.8727C4.9404 9.57308 4.40386 10.2605 3.87013 10.9498C3.62315 11.269 3.49545 11.6175 3.50012 12.0338C3.51229 13.1788 3.50293 14.3243 3.5048 15.4698C3.5062 16.1918 3.86358 16.6802 4.54092 16.8826C4.65412 16.9162 4.72897 16.984 4.79819 17.0748C5.73842 18.3121 7.32511 18.3083 8.27469 17.0638C8.3514 16.9633 8.4342 16.9292 8.55255 16.9292C11.187 16.9311 13.8215 16.9316 16.4556 16.9282C16.5884 16.9282 16.6665 16.983 16.7447 17.0878C17.6456 18.2996 19.2851 18.3001 20.1936 17.0893C20.2787 16.9758 20.376 16.909 20.5126 16.8701C21.1034 16.7018 21.4968 16.1706 21.4977 15.5366C21.5005 12.8375 21.501 10.1384 21.4977 7.43926C21.4963 6.6788 20.9696 6.10197 20.2315 6.03371C19.6014 5.97506 18.9699 6.01159 18.3388 6.00775C17.1933 6.0015 16.0472 6.00583 14.9016 6.00583V6.00631ZM12.1829 11.1094C12.1829 11.0051 12.182 10.9012 12.1829 10.7969C12.1881 10.2855 12.4145 10.0494 12.9131 10.0413C13.1625 10.0369 13.4122 10.0379 13.6616 10.0394C13.8066 10.0403 13.8744 9.97686 13.8711 9.82208C13.866 9.55 13.8674 9.27745 13.8716 9.00489C13.8781 8.59967 14.0713 8.35788 14.4638 8.29827C14.7566 8.25356 15.0565 8.25549 15.3498 8.29635C15.7535 8.35259 15.9443 8.59582 15.9495 9.02028C15.9527 9.27649 15.9583 9.53318 15.948 9.78939C15.9401 9.98071 16.021 10.0456 16.1969 10.0418C16.4617 10.0355 16.7274 10.0341 16.9921 10.0446C17.4024 10.0615 17.6236 10.2932 17.6362 10.7114C17.6433 10.9512 17.6414 11.1921 17.6381 11.4324C17.6311 11.9194 17.3939 12.1664 16.9149 12.1818C16.689 12.189 16.4621 12.1967 16.2371 12.1809C16.0061 12.164 15.9354 12.2635 15.9476 12.488C15.9611 12.7438 15.9569 13.0009 15.9476 13.2567C15.9326 13.6407 15.6791 13.9008 15.3067 13.9142C15.0499 13.9234 14.7922 13.9239 14.5354 13.9138C14.1373 13.8979 13.8838 13.6311 13.8735 13.2244C13.8669 12.9601 13.8646 12.6957 13.8735 12.4313C13.8796 12.2414 13.8014 12.1756 13.6227 12.1823C13.3734 12.1914 13.1236 12.1919 12.8748 12.1804C12.4271 12.1592 12.1932 11.9045 12.1848 11.4459C12.1829 11.3339 12.1848 11.2214 12.1843 11.1094H12.1829ZM6.60754 12.5399C6.11685 12.5399 5.62569 12.5414 5.13499 12.539C5.04565 12.539 4.91654 12.5635 4.90625 12.4351C4.88894 12.2179 4.84684 11.9977 5.00589 11.7944C5.5195 11.1401 6.02189 10.4768 6.52381 9.81343C6.60333 9.70815 6.69081 9.66153 6.81991 9.66297C7.24044 9.66826 7.66144 9.67162 8.08197 9.66153C8.26627 9.6572 8.32521 9.72594 8.32381 9.91293C8.31632 10.7056 8.31632 11.4983 8.32381 12.2909C8.32568 12.4784 8.26206 12.5467 8.0801 12.5433C7.5894 12.5351 7.09824 12.5404 6.60754 12.5404V12.5399ZM6.53551 16.5283C6.11404 16.5292 5.78379 16.2043 5.78099 15.7856C5.77818 15.3539 6.11545 15.0059 6.53644 15.0074C6.93265 15.0088 7.28348 15.3679 7.28722 15.776C7.29096 16.1894 6.95323 16.5273 6.53551 16.5283ZM18.4703 16.5283C18.0399 16.5264 17.741 16.2153 17.742 15.7707C17.7429 15.3448 18.0713 15.0045 18.4787 15.0074C18.8903 15.0102 19.2234 15.3482 19.2257 15.7654C19.2285 16.2009 18.9025 16.5297 18.4708 16.5278L18.4703 16.5283Z" fill="#FF8500"/>
</svg>
