<svg width="25" height="25" viewBox="0 0 25 25" fill="none" xmlns="http://www.w3.org/2000/svg">
<path d="M9.57461 10.6772C10.2003 10.6772 10.8264 10.6705 11.4521 10.6812C11.6466 10.6843 11.7111 10.6209 11.7045 10.4273C11.6921 10.0733 11.7053 9.71892 11.6996 9.36449C11.6969 9.20101 11.746 9.12038 11.9258 9.12481C12.3085 9.13412 12.6916 9.13412 13.0743 9.12481C13.2524 9.12038 13.3063 9.19791 13.3036 9.36228C13.2983 9.70917 13.3125 10.0565 13.2988 10.403C13.2904 10.6138 13.358 10.6838 13.5732 10.6821C14.7362 10.6728 15.9005 10.7024 17.0627 10.671C18.2712 10.6387 19.4775 11.5965 19.4842 13.0957C19.4864 13.6025 19.5504 14.116 19.4099 14.6157C19.1099 15.683 17.8359 16.1119 16.9893 15.3973C16.4392 14.933 15.9536 14.3916 15.4401 13.8839C15.2209 13.6672 15.2222 13.6659 15.0026 13.8852C14.57 14.3176 14.1392 14.7522 13.7035 15.1819C12.9603 15.9152 12.0429 15.9138 11.2997 15.178C10.8596 14.7425 10.4173 14.3087 9.98997 13.8608C9.84062 13.7044 9.75269 13.6836 9.59184 13.8537C9.14113 14.33 8.67274 14.7903 8.20435 15.2497C7.57865 15.8633 6.73245 15.9165 6.08731 15.3866C5.80981 15.1585 5.61053 14.8616 5.57032 14.5099C5.49034 13.8139 5.44748 13.1103 5.61627 12.4192C5.86063 11.4193 6.78283 10.6918 7.80666 10.6803C8.39568 10.6737 8.9847 10.679 9.57373 10.679V10.6776L9.57461 10.6772Z" fill="#FF8500"/>
<path d="M12.4864 20.7656C10.4758 20.7656 8.46572 20.7656 6.45518 20.7656C5.84539 20.7656 5.52414 20.4528 5.52193 19.8445C5.51796 18.7812 5.51972 17.7179 5.52149 16.6547C5.52149 16.3915 5.54668 16.3795 5.77866 16.5071C6.84359 17.0933 8.06715 16.9245 8.93146 16.0725C9.15726 15.8501 9.3919 15.6357 9.60621 15.4027C9.7423 15.2547 9.82803 15.2746 9.96236 15.408C10.3274 15.7708 10.661 16.1678 11.1051 16.446C12.0113 17.0149 13.5053 16.9511 14.34 16.0982C14.5822 15.8506 14.8358 15.614 15.0784 15.3668C15.1778 15.2653 15.2538 15.2658 15.3541 15.3681C15.6171 15.637 15.8787 15.9077 16.1566 16.1602C17.0094 16.9347 18.2051 17.0685 19.2144 16.5125C19.4623 16.376 19.4826 16.3853 19.483 16.6618C19.4844 17.7029 19.4839 18.744 19.4826 19.7851C19.4826 19.8658 19.4733 19.9473 19.4623 20.0275C19.3982 20.5051 19.1092 20.7633 18.628 20.7638C16.5808 20.7656 14.5336 20.7647 12.4864 20.7647V20.7656Z" fill="#FF8500"/>
<path d="M10.934 6.82196C10.9203 6.54462 11.0069 6.29387 11.1391 6.06039C11.5527 5.32894 11.9747 4.60193 12.3909 3.87137C12.4629 3.74511 12.5208 3.71985 12.6021 3.86207C13.0303 4.61079 13.4766 5.34977 13.8858 6.10868C14.1938 6.68019 14.1346 7.26189 13.7439 7.77448C13.3485 8.29415 12.7996 8.50282 12.1585 8.35662C11.5292 8.21308 11.1377 7.79707 10.9738 7.1724C10.9442 7.05987 10.9464 6.93892 10.934 6.82196Z" fill="#FF8500"/>
</svg>
