<svg width="24" height="24" viewBox="0 0 24 24" fill="none" xmlns="http://www.w3.org/2000/svg">
<path fill-rule="evenodd" clip-rule="evenodd" d="M7.46419 5.45217C7.46466 5.49408 7.46513 5.53598 7.46513 5.57783C7.46528 5.62458 7.46475 5.67144 7.46422 5.71832C7.46315 5.81217 7.46209 5.90615 7.46644 5.99974C7.48382 6.37353 7.77537 6.65733 8.14687 6.66802C8.53576 6.67916 8.85468 6.41541 8.87902 6.03449C8.89813 5.73955 8.8964 5.4415 8.88032 5.14612C8.8599 4.76341 8.54705 4.49387 8.15947 4.50011C7.77667 4.50634 7.48208 4.79237 7.466 5.17775C7.46213 5.26911 7.46316 5.36068 7.46419 5.45217ZM16.5341 5.58986C16.5341 5.63171 16.5346 5.6736 16.5351 5.71551V5.71555C16.5361 5.80703 16.5371 5.89859 16.5333 5.98994C16.5172 6.37576 16.2226 6.66179 15.8398 6.66847C15.4427 6.67515 15.1333 6.39581 15.1168 5.99974C15.1051 5.71861 15.1055 5.43615 15.1168 5.15547C15.132 4.78435 15.4366 4.50322 15.8076 4.50011C16.1983 4.49654 16.5072 4.76876 16.5311 5.14522C16.5374 5.24709 16.5358 5.3496 16.5343 5.45216V5.45219C16.5335 5.49808 16.5328 5.54399 16.5328 5.58986H16.5341ZM5.32085 9.16608H11.9879V9.16519H14.3768L15.3421 9.1651H15.3436C16.4691 9.16494 17.5946 9.16479 18.7201 9.16652C18.8687 9.16697 18.9956 9.16697 18.9939 8.95579C18.9919 8.73039 18.994 8.50482 18.996 8.27929V8.27906V8.27884C18.9998 7.87328 19.0036 7.46782 18.9835 7.06365C18.9374 6.13473 18.3708 5.57025 17.5339 5.56847C17.2033 5.56768 17.2033 5.5683 17.1984 5.8077C17.1979 5.83637 17.1972 5.86847 17.1959 5.9044C17.1585 6.93445 16.2322 7.59917 15.3375 7.24008C14.7301 6.99638 14.4789 6.5063 14.4516 5.86475C14.439 5.56892 14.435 5.56847 14.1396 5.56847H10.0135C9.72355 5.56847 9.5638 5.71104 9.53425 5.99617L9.52513 6.08483C9.41259 7.14073 8.28374 7.68337 7.41864 7.09706C6.97153 6.79411 6.81164 6.34368 6.80034 5.81797C6.80007 5.80371 6.80026 5.78938 6.80046 5.77518V5.77515C6.80181 5.67531 6.80308 5.58196 6.64218 5.56714C5.78837 5.48828 5.11272 6.03672 5.03103 6.90727C4.99093 7.33471 4.99738 7.76351 5.00382 8.19226V8.19227V8.1923V8.19232C5.00708 8.40932 5.01034 8.6263 5.00757 8.84307C5.00322 9.1634 5.00974 9.16608 5.32085 9.16608ZM18.691 9.84595H12.0001L11.9992 9.8455H5.3517C5.12112 9.8458 5.00583 9.96431 5.00583 10.201L5.00581 11.4666V11.4683C5.00574 13.5778 5.00568 15.6873 5.00713 17.7968C5.00713 17.9523 5.01713 18.1091 5.03842 18.2628C5.13488 18.9645 5.71364 19.4978 6.39408 19.4982C8.72921 19.4999 11.0642 19.4998 13.3992 19.4997C14.8007 19.4997 16.2023 19.4997 17.6039 19.5C17.7807 19.5 17.9502 19.4688 18.1105 19.394C18.761 19.0901 18.9926 18.5354 18.9926 17.8422L18.9927 15.2809C18.9928 13.5731 18.9929 11.8652 18.9926 10.1574C18.9926 9.84684 18.9904 9.84595 18.691 9.84595ZM12.1022 17.6602L12.0153 17.66C11.9703 17.6596 11.9253 17.6598 11.8803 17.6599C11.8095 17.6601 11.7387 17.6603 11.6681 17.6587C11.2705 17.6493 11.0029 17.3953 10.9772 16.9855C10.9629 16.7489 10.9625 16.5096 10.9781 16.2735C11.0037 15.885 11.2492 15.6239 11.6273 15.5923C11.8715 15.5718 12.12 15.5723 12.3642 15.5914C12.76 15.6226 13.0068 15.8988 13.0255 16.3092C13.0332 16.479 13.0307 16.6496 13.0282 16.82L13.0272 16.8879C13.0207 17.3851 12.7574 17.6546 12.276 17.66C12.2182 17.6606 12.1604 17.6604 12.1025 17.6602H12.1022ZM11.9003 11.6872H11.9003H11.9003C11.9326 11.6866 11.9648 11.686 11.997 11.686C12.0376 11.6861 12.0782 11.6859 12.1189 11.6857C12.1867 11.6854 12.2546 11.685 12.3225 11.6864C12.7322 11.6953 13.0003 11.9519 13.0238 12.3721C13.0359 12.5939 13.0346 12.8176 13.0246 13.0395C13.0068 13.4418 12.7713 13.702 12.3816 13.7487C12.1296 13.7795 11.8749 13.779 11.6234 13.7496C11.224 13.7033 10.9881 13.4373 10.9738 13.023C10.9668 12.8158 10.9686 12.6077 10.9738 12.4001C10.9829 12.0428 11.2262 11.6508 11.6933 11.6851C11.762 11.6899 11.8312 11.6886 11.9003 11.6872ZM9.17665 16.629H9.17535C9.17535 16.6724 9.1759 16.7158 9.17645 16.7591C9.17759 16.8492 9.17873 16.9391 9.17491 17.0291C9.15884 17.3958 8.92725 17.6422 8.57443 17.6551C8.30721 17.6653 8.03912 17.6644 7.77189 17.6551C7.47947 17.6448 7.24267 17.4488 7.18705 17.1548C7.12187 16.8108 7.11927 16.4593 7.18705 16.1162C7.2418 15.8378 7.42863 15.6605 7.70281 15.6101C8.00305 15.5549 8.30938 15.5607 8.61006 15.6026C8.96548 15.652 9.16535 15.9024 9.17622 16.2731C9.17859 16.3539 9.17793 16.4348 9.17727 16.5158V16.5158V16.5159V16.5159C9.17696 16.5536 9.17665 16.5914 9.17665 16.629ZM9.17535 12.7169H9.17752C9.17752 12.7515 9.17771 12.7861 9.17791 12.8207C9.17829 12.8899 9.17868 12.9591 9.17752 13.0283C9.17013 13.473 8.93594 13.7327 8.5036 13.759C8.28722 13.7719 8.06953 13.771 7.85315 13.759C7.44558 13.7358 7.18097 13.4689 7.15663 13.0533C7.14316 12.8247 7.1423 12.5935 7.15707 12.3645C7.18444 11.9328 7.43819 11.6931 7.85923 11.6868C8.09039 11.6833 8.32198 11.6815 8.55314 11.6891C8.92203 11.7016 9.1584 11.9421 9.17448 12.3168C9.17835 12.4082 9.17732 12.4998 9.17629 12.5912V12.5913V12.5913C9.17582 12.6332 9.17535 12.6751 9.17535 12.7169ZM14.8231 12.7124H14.8291C14.8291 12.6643 14.8282 12.6161 14.8273 12.5679L14.8273 12.5678C14.8253 12.4604 14.8232 12.3531 14.8313 12.2464C14.8535 11.9551 15.0812 11.7118 15.3645 11.6971C15.6673 11.6811 15.9719 11.6824 16.2747 11.6958C16.5372 11.7073 16.7649 11.9207 16.8135 12.1939C16.8739 12.5316 16.8731 12.8737 16.817 13.2114C16.7679 13.5064 16.525 13.726 16.207 13.7519C15.9558 13.7719 15.7003 13.7741 15.4492 13.7527C15.0494 13.7184 14.8317 13.4596 14.8231 13.0461C14.8219 12.9719 14.8223 12.8979 14.8227 12.8238L14.8227 12.8233C14.8229 12.7864 14.8231 12.7494 14.8231 12.7124ZM15.8207 17.6591V17.6529C15.7736 17.6529 15.7264 17.6538 15.6791 17.6548H15.6791H15.679C15.5742 17.657 15.4692 17.6592 15.3653 17.6506C15.0894 17.6284 14.8448 17.3833 14.8317 17.0995C14.8174 16.7894 14.8183 16.4771 14.8317 16.1666C14.8435 15.8988 15.0477 15.6698 15.3214 15.6168C15.6499 15.5531 15.9849 15.5531 16.313 15.615C16.5967 15.6689 16.7692 15.8668 16.82 16.1555C16.8731 16.4557 16.867 16.7618 16.8283 17.0634C16.7796 17.4426 16.5441 17.648 16.1674 17.6587C16.0883 17.6608 16.0093 17.6602 15.9302 17.6596C15.8937 17.6594 15.8572 17.6591 15.8207 17.6591Z" fill="#FF8500"/>
</svg>
