<svg width="24" height="24" viewBox="0 0 24 24" fill="none" xmlns="http://www.w3.org/2000/svg">
<path d="M7.5459 4.00129C8.27245 4.00129 8.99847 3.99917 9.72503 4.00183C10.5393 4.00502 11.0601 4.51777 11.0622 5.32573C11.0654 6.79591 11.0654 8.26661 11.0622 9.73679C11.0606 10.5442 10.5399 11.0591 9.72556 11.0607C8.26394 11.0634 6.80232 11.0634 5.34071 11.0607C4.51575 11.0591 4.00461 10.5426 4.00355 9.7102C4.00142 8.25757 4.00142 6.80495 4.00355 5.35179C4.00408 4.50979 4.51629 4.00395 5.36677 4.00183C6.09332 3.9997 6.81934 4.00183 7.5459 4.00183V4.00129Z" fill="#FF8500"/>
<path d="M16.4534 11.0617C15.7184 11.0617 14.9828 11.0649 14.2477 11.0611C13.469 11.0569 12.9409 10.5362 12.9387 9.76331C12.9345 8.27505 12.9345 6.78679 12.9387 5.29906C12.9409 4.53738 13.4669 4.00601 14.2227 4.00335C15.7194 3.99856 17.2167 3.99856 18.7134 4.00335C19.4575 4.00547 19.9926 4.53418 19.9952 5.27353C20.0011 6.77934 20.0011 8.28515 19.9952 9.79097C19.9926 10.5298 19.457 11.0553 18.7118 11.0601C17.9592 11.0654 17.206 11.0611 16.4529 11.0611L16.4534 11.0617Z" fill="#FF8500"/>
<path d="M11.0621 16.4956C11.0621 17.2307 11.0658 17.9663 11.061 18.7014C11.0562 19.463 10.5323 19.9939 9.77599 19.9965C8.27927 20.0013 6.78202 20.0013 5.2853 19.9965C4.54066 19.9939 4.00665 19.4652 4.00399 18.7253C3.99867 17.2195 3.99867 15.7137 4.00399 14.2079C4.00665 13.4802 4.538 12.9435 5.26136 12.9403C6.77617 12.934 8.29098 12.934 9.80525 12.9403C10.5275 12.9435 11.0493 13.4813 11.0616 14.2105C11.0616 14.2281 11.0616 14.2462 11.0616 14.2637C11.0616 15.0078 11.0616 15.752 11.0616 16.4961L11.0621 16.4956Z" fill="#FF8500"/>
<path d="M16.4484 19.9976C14.548 20.0561 12.9055 18.3503 12.922 16.4344C12.938 14.5818 14.5496 12.8807 16.5143 12.9286C18.461 12.9759 20.0008 14.5046 19.9977 16.4732C19.9945 18.463 18.4472 19.9997 16.4484 19.9976Z" fill="#FF8500"/>
</svg>
