<svg width="24" height="24" viewBox="0 0 24 24" fill="none" xmlns="http://www.w3.org/2000/svg">
<path d="M18.535 11.504C18.535 13.7374 18.535 15.9708 18.535 18.2026C18.535 18.4025 18.6339 18.5024 18.8315 18.5024C18.9749 18.5024 19.1182 18.5007 19.2616 18.5024C19.6574 18.5121 19.9458 18.7744 19.9947 19.1654C20.0403 19.5303 19.7894 19.8871 19.418 19.9734C19.3023 20.0011 19.1785 20.0092 19.0596 20.0092C18.0105 20.0125 16.963 20.0109 15.9139 20.0092C15.5881 20.0092 15.5767 19.9962 15.5767 19.6606C15.5767 18.1212 15.5767 16.5817 15.5767 15.0439C15.5767 14.4525 15.3144 14.1886 14.7247 14.1886C12.9066 14.1886 11.0886 14.1886 9.2706 14.1886C8.69229 14.1886 8.42512 14.4558 8.42512 15.0276C8.42512 16.5736 8.42512 18.1212 8.42512 19.6671C8.42512 19.9978 8.41209 20.0109 8.08139 20.0109C7.01762 20.0109 5.95385 20.0141 4.89008 20.0109C4.39322 20.0092 4.08859 19.7779 4.01202 19.3625C3.93383 18.9422 4.24661 18.5333 4.67342 18.5056C4.78582 18.4975 4.89986 18.504 5.01226 18.5024C5.53193 18.4959 5.45699 18.5692 5.46351 18.0397C5.46351 18.0088 5.46351 17.9794 5.46351 17.9485C5.46351 13.6022 5.46351 9.2575 5.46351 4.91118C5.46351 4.25142 5.7323 3.98425 6.40021 3.98425C10.1193 3.98425 13.8385 3.98425 17.5576 3.98425C17.67 3.98425 17.784 3.98751 17.8948 4.00543C18.2972 4.07222 18.5334 4.34753 18.535 4.75642C18.5383 5.65403 18.535 6.55164 18.535 7.44925C18.535 8.79973 18.535 10.1502 18.535 11.5007V11.504ZM8.42187 10.9094C8.42187 11.0364 8.41861 11.1651 8.42187 11.2922C8.4349 11.6587 8.6874 11.9275 9.04905 11.9682C9.3488 12.0024 9.67787 11.776 9.75606 11.4518C9.8424 11.0983 9.84077 10.7334 9.75769 10.3799C9.67949 10.0443 9.34228 9.81626 9.03439 9.85862C8.66785 9.90912 8.43164 10.173 8.42024 10.5461C8.41698 10.6666 8.42024 10.7872 8.42024 10.9077L8.42187 10.9094ZM15.5718 10.9094C15.5718 10.7888 15.575 10.6683 15.5718 10.5477C15.5604 10.1747 15.3242 9.91075 14.956 9.86025C14.6497 9.81789 14.3141 10.046 14.2327 10.3815C14.1496 10.7285 14.1512 11.0853 14.2294 11.4323C14.306 11.7711 14.6351 12.0041 14.9413 11.9699C15.3128 11.9275 15.5587 11.6555 15.5701 11.271C15.5734 11.1505 15.5701 11.0299 15.5701 10.9094H15.5718ZM8.4235 7.27657C8.4235 7.41992 8.41698 7.56328 8.4235 7.70664C8.43816 8.00801 8.65645 8.26866 8.93013 8.32242C9.27386 8.38921 9.60456 8.24748 9.7137 7.93796C9.86358 7.51604 9.86358 7.07456 9.71696 6.65264C9.60619 6.33498 9.2983 6.20139 8.93828 6.26493C8.64505 6.31706 8.43653 6.56793 8.42187 6.89211C8.41698 7.02081 8.42187 7.14787 8.42187 7.27657H8.4235ZM15.5701 7.28634C15.5701 7.15113 15.5767 7.01429 15.5701 6.87908C15.5539 6.56793 15.347 6.32031 15.0635 6.26656C14.7165 6.20139 14.4021 6.32357 14.2881 6.62495C14.1235 7.06642 14.1187 7.52907 14.293 7.97054C14.4086 8.26377 14.7475 8.39247 15.0749 8.31916C15.3405 8.26052 15.5522 8.00475 15.5685 7.71478C15.5767 7.57143 15.5685 7.42807 15.5685 7.28471L15.5701 7.28634ZM11.3183 7.27005C11.3183 7.40526 11.3151 7.5421 11.3183 7.67731C11.3297 8.0634 11.6148 8.33545 12.0025 8.33382C12.3772 8.33219 12.6639 8.06177 12.6737 7.68872C12.6802 7.42481 12.6802 7.1609 12.6737 6.897C12.6639 6.51743 12.3854 6.25678 12.0009 6.25515C11.605 6.25352 11.3297 6.5158 11.3167 6.91003C11.3134 7.03058 11.3167 7.15113 11.3167 7.27168L11.3183 7.27005ZM12.6753 10.9208C12.6753 10.7855 12.6802 10.6487 12.6753 10.5135C12.659 10.1502 12.3544 9.85373 11.9993 9.85373C11.6458 9.85373 11.3346 10.1486 11.3216 10.5119C11.3118 10.7758 11.3134 11.0397 11.3216 11.3036C11.333 11.6799 11.649 11.9829 12.009 11.9748C12.3674 11.9666 12.6623 11.6734 12.677 11.3068C12.6818 11.1781 12.677 11.0511 12.677 10.9224L12.6753 10.9208Z" fill="#FF8500"/>
<path d="M14.1875 17.8166C14.1875 18.465 14.1826 19.1133 14.1908 19.7617C14.1924 19.9474 14.1289 20.0175 13.9432 20.0158C12.6464 20.0126 11.3497 20.0126 10.053 20.0158C9.87053 20.0158 9.80211 19.9523 9.80374 19.765C9.81026 18.4536 9.81026 17.1422 9.80374 15.8308C9.80374 15.6451 9.86564 15.5767 10.0514 15.5767C11.3481 15.5815 12.6448 15.5799 13.9415 15.5767C14.124 15.5767 14.194 15.6402 14.1924 15.8275C14.1843 16.4906 14.1891 17.1536 14.1891 17.8182L14.1875 17.8166Z" fill="#FF8500"/>
</svg>
