<svg width="25" height="25" viewBox="0 0 25 25" fill="none" xmlns="http://www.w3.org/2000/svg">
<path d="M20.4861 8.89701C20.4861 7.87441 19.6898 7.09366 18.639 7.09103C17.58 7.0884 16.521 7.08577 15.4593 7.09366C15.2508 7.09366 15.1858 7.02531 15.1668 6.83341C15.1045 6.26033 14.6847 5.86338 14.0997 5.79503C13.7476 5.75297 13.3928 5.774 13.0408 5.77663C12.3284 5.78188 11.6134 5.73719 10.9011 5.79766C10.2999 5.8476 9.88277 6.25507 9.82048 6.84129C9.79881 7.04371 9.71485 7.09103 9.51714 7.09103C8.43649 7.08314 7.35584 7.08314 6.2752 7.09103C5.31914 7.09891 4.50391 7.89281 4.5012 8.82341C4.4985 11.5468 4.5012 14.2677 4.5012 16.9911C4.5012 17.4433 4.67183 17.8297 4.9833 18.1609C5.40039 18.6026 5.93665 18.7603 6.5352 18.7603C8.52316 18.7603 10.5111 18.7603 12.4991 18.7603C14.487 18.7603 16.4614 18.7471 18.4413 18.7655C19.7576 18.7761 20.5186 17.8349 20.4997 16.7808C20.4563 14.152 20.4861 11.5258 20.4861 8.89701ZM14.3895 10.6741C15.565 10.6688 16.7431 10.6688 17.9186 10.6741C18.314 10.6741 18.5442 10.9843 18.4142 11.305C18.3329 11.5074 18.1731 11.5837 17.9565 11.5837C17.3552 11.5837 16.7512 11.5837 16.15 11.5837C15.5623 11.5837 14.9718 11.5837 14.3841 11.5837C14.0374 11.5837 13.8641 11.4338 13.8614 11.1473C13.8587 10.8634 14.0537 10.6767 14.3868 10.6741H14.3895ZM9.22192 10.6688C9.99923 10.6688 10.6249 11.2813 10.6222 12.0411C10.6222 12.7982 9.9884 13.4107 9.20567 13.408C8.42566 13.408 7.79731 12.7903 7.80002 12.0305C7.80273 11.2708 8.43108 10.6688 9.22192 10.6715V10.6688ZM11.0257 16.7676C10.419 16.7676 9.81235 16.7676 9.20567 16.7676C8.60983 16.7676 8.01398 16.7676 7.41814 16.7676C7.0173 16.7676 6.71396 16.4837 6.73021 16.0999C6.76812 15.1273 7.22855 14.4017 8.12503 13.9601C8.81025 13.6236 9.52797 13.6078 10.2213 13.9233C11.172 14.3518 11.6622 15.0984 11.6974 16.1157C11.7109 16.4811 11.4049 16.7676 11.0257 16.7676ZM13.5933 8.38177C13.2276 8.37651 12.8593 8.38177 12.4937 8.38177C12.1334 8.38177 11.7732 8.37651 11.413 8.38177C11.2586 8.3844 11.2018 8.32919 11.2045 8.18198C11.2099 7.9007 11.2099 7.61679 11.2045 7.33551C11.2045 7.20144 11.2559 7.13835 11.3995 7.14097C12.1334 7.1436 12.8674 7.14097 13.5987 7.14097C13.7314 7.14097 13.7856 7.19881 13.7829 7.32499C13.7829 7.61416 13.7801 7.90333 13.7829 8.1925C13.7829 8.32919 13.7314 8.3844 13.5878 8.38177H13.5933ZM14.4031 13.2503C14.9827 13.2451 15.565 13.2503 16.1446 13.2503C16.6619 13.2503 17.1819 13.2503 17.6992 13.2503C17.7479 13.2503 17.7967 13.2503 17.8454 13.2503C18.2165 13.2529 18.4548 13.4343 18.4602 13.7156C18.4657 13.9943 18.2219 14.1862 17.8563 14.1888C17.6477 14.1888 17.4419 14.1888 17.2333 14.1888C16.2989 14.1888 15.3673 14.1888 14.4329 14.1888C14.1079 14.1888 13.8993 14.0363 13.8695 13.7945C13.8289 13.4711 14.0374 13.2556 14.4031 13.2529V13.2503ZM17.9023 16.765C17.3146 16.7703 16.7269 16.765 16.1364 16.765C15.5623 16.765 14.9881 16.7676 14.4139 16.765C14.0645 16.7624 13.8641 16.581 13.8668 16.2918C13.8695 16.0237 14.0347 15.8607 14.3272 15.8555C14.812 15.8502 15.2968 15.8528 15.7816 15.8528C16.4885 15.8528 17.1927 15.8528 17.8996 15.8528C18.249 15.8528 18.4494 16.0132 18.4602 16.2866C18.4684 16.5547 18.2354 16.7598 17.9023 16.765Z" fill="#FF8500"/>
</svg>
