<svg width="25" height="24" viewBox="0 0 25 24" fill="none" xmlns="http://www.w3.org/2000/svg">
<path d="M20.249 12.0113C20.249 14.5525 20.2474 17.0932 20.2501 19.6344C20.2506 20.2385 20.0114 20.6895 19.4592 20.9553C19.2811 21.0411 19.092 21.0697 18.896 21.0697C14.6371 21.0697 10.3788 21.0707 6.12001 21.0675C5.39027 21.067 4.85654 20.5656 4.78751 19.8356C4.76855 19.6339 4.75748 19.4311 4.75748 19.2283C4.75643 15.2228 4.76486 11.2172 4.74905 7.21159C4.74642 6.50482 4.93346 5.9394 5.46772 5.45127C6.18166 4.79903 6.84501 4.0912 7.52258 3.39925C7.83661 3.07948 8.19805 2.92912 8.65117 2.93018C12.0227 2.93812 15.3948 2.93389 18.7663 2.93495C19.6794 2.93495 20.2479 3.50142 20.2485 4.4152C20.2501 6.94741 20.249 9.47962 20.249 12.0118V12.0113ZM14.7114 13.257C15.3785 13.257 16.046 13.2533 16.7131 13.2597C16.8912 13.2613 16.9702 13.2036 16.9633 13.0167C16.9533 12.7525 16.9575 12.4872 16.9612 12.2231C16.9633 12.0754 16.8975 12.0214 16.7536 12.0214C15.4106 12.024 14.0676 12.0245 12.7245 12.0208C12.5575 12.0208 12.5133 12.0981 12.5169 12.2485C12.5233 12.4952 12.5296 12.743 12.5148 12.9891C12.5022 13.2009 12.5849 13.2644 12.7888 13.2613C13.4295 13.2517 14.0702 13.2576 14.7114 13.2576V13.257ZM14.7288 17.125C15.3869 17.125 16.045 17.1202 16.7031 17.1281C16.8959 17.1302 16.9733 17.063 16.9639 16.8671C16.9528 16.6384 16.9528 16.4087 16.9639 16.1799C16.9739 15.9788 16.8832 15.9152 16.6967 15.9237C16.4955 15.9327 16.2931 15.9253 16.0913 15.9253C14.9944 15.9253 13.8979 15.9295 12.8015 15.9216C12.5839 15.92 12.5011 15.9936 12.5159 16.2128C12.5306 16.4235 12.5317 16.6368 12.5159 16.847C12.4985 17.0762 12.5991 17.1318 12.8083 17.1287C13.4485 17.1191 14.0892 17.125 14.7299 17.125H14.7288ZM14.7114 9.38697C15.369 9.38697 16.026 9.38168 16.6836 9.39015C16.8843 9.3928 16.9744 9.32768 16.9633 9.11697C16.9517 8.88879 16.956 8.65902 16.9618 8.43031C16.966 8.26619 16.9049 8.18678 16.7336 8.18731C15.4016 8.18996 14.0691 8.18943 12.7372 8.18784C12.5839 8.18784 12.5133 8.25084 12.5175 8.40967C12.5233 8.64737 12.5301 8.88614 12.5154 9.12279C12.5017 9.3388 12.5933 9.39333 12.7925 9.39068C13.4321 9.38168 14.0723 9.3875 14.7119 9.38697H14.7114ZM9.22126 10.2923C9.38723 10.2949 9.53213 10.2404 9.64962 10.1223C10.2013 9.5675 10.7498 9.0095 11.304 8.45731C11.4121 8.34984 11.4047 8.27466 11.2993 8.1746C11.1144 7.99937 10.931 7.82148 10.7614 7.63142C10.6333 7.48848 10.5416 7.47577 10.402 7.62507C10.0838 7.96495 9.74025 8.28155 9.42253 8.62196C9.26183 8.79402 9.14276 8.78979 8.99576 8.61614C8.88248 8.4822 8.74443 8.36996 8.62746 8.23919C8.51102 8.10896 8.41355 8.08407 8.28393 8.22807C8.11375 8.41761 7.93145 8.59708 7.7444 8.7702C7.62374 8.88138 7.63323 8.96026 7.74756 9.07038C8.10268 9.41133 8.44938 9.76074 8.79923 10.107C8.91672 10.2235 9.05477 10.2907 9.22179 10.2917L9.22126 10.2923ZM9.89884 12.6392C9.89884 12.0219 9.89884 12.0171 9.34508 12.0229C8.61376 12.0309 8.70544 11.9091 8.70333 12.6646C8.70123 13.3465 8.63642 13.2517 9.29134 13.256C9.89884 13.2602 9.89884 13.257 9.89884 12.6387V12.6392ZM9.89884 16.5288C9.88778 15.8427 9.99842 15.9279 9.30082 15.9264C8.63115 15.9253 8.70333 15.8485 8.70281 16.5373C8.70281 17.2097 8.63747 17.1197 9.29608 17.1239C9.89884 17.1281 9.89884 17.125 9.89884 16.5283V16.5288Z" fill="#FF8500"/>
</svg>
