<svg width="24" height="24" viewBox="0 0 24 24" fill="none" xmlns="http://www.w3.org/2000/svg">
<path d="M19.0515 5.93717C23.795 11.072 21.1258 19.2355 14.2513 20.8422C6.69002 22.6094 0.254079 15.2798 3.34716 8.34562C6.06041 2.26211 14.4826 0.991296 19.0515 5.93717ZM6.0234 12.4871H8.17289C8.34049 12.4871 8.5315 12.157 8.5315 11.987C8.5315 11.8169 8.34049 11.4869 8.17289 11.4869H6.0234C6.15292 10.3124 6.61383 9.17475 7.41105 8.27665C7.53022 8.27771 8.73284 9.65013 8.96303 9.71962C9.49305 9.87913 9.9137 9.42534 9.61495 8.98576C9.32436 8.55882 8.56741 8.0824 8.22676 7.64388C8.20064 7.61018 8.11847 7.57807 8.17126 7.53806C8.94235 6.94161 9.9224 6.43992 10.9084 6.28935C11.0189 6.27251 11.5196 6.17354 11.5196 6.30146V8.35457C11.5196 8.45722 11.8863 8.65411 12.0354 8.64779C12.1622 8.64253 12.4991 8.43511 12.4991 8.35457V6.30146C12.4991 6.17301 12.9997 6.27251 13.1102 6.28935C14.0957 6.43992 15.0757 6.94161 15.8474 7.53806C15.8996 7.57807 15.818 7.61018 15.7919 7.64388C15.4512 8.0824 14.6943 8.55935 14.4037 8.98576C14.1131 9.41218 14.5256 9.87913 15.0556 9.71962C15.282 9.65118 16.4987 8.27718 16.6076 8.27665C17.4053 9.17475 17.8657 10.3124 17.9952 11.4869H15.8457C15.6781 11.4869 15.4871 11.8169 15.4871 11.987C15.4871 12.157 15.6781 12.4871 15.8457 12.4871H17.9952C17.857 13.671 17.4238 14.7971 16.6076 15.6973C16.4933 15.6963 15.2548 14.2928 15.0164 14.238C14.4984 14.1196 14.1272 14.546 14.4037 14.9877L16.3426 16.8491C16.5308 16.9597 16.8361 16.9192 16.9988 16.7865C17.6595 16.249 18.4202 14.9229 18.6869 14.1296C20.4603 8.85837 15.3516 3.87248 9.88921 5.51339C5.575 6.81 3.61326 11.8227 6.02286 15.5673C6.21169 15.8605 6.76239 16.5828 7.01978 16.7876C7.24562 16.9676 7.46437 16.9818 7.70816 16.8276C7.89101 16.7117 9.49577 15.164 9.61549 14.9877C9.90608 14.5607 9.4936 14.099 9.00275 14.238C8.43191 14.6729 7.96501 15.2261 7.41159 15.6973C6.59533 14.7971 6.16217 13.671 6.02395 12.4871H6.0234ZM11.9903 9.40007C11.784 9.40691 11.5881 9.53062 11.5206 9.72488C11.3405 10.9562 10.8148 12.3144 10.6614 13.5263C10.3648 15.8694 13.5744 15.8089 13.3719 13.6695L12.4849 9.68434C12.3913 9.50272 12.1998 9.3927 11.9908 9.39954L11.9903 9.40007ZM11.6681 15.711C10.0084 15.9832 10.0372 18.5369 11.7155 18.7459C14.2698 19.0644 14.1365 15.3062 11.6681 15.711Z" fill="#FF8500"/>
<path d="M12.0628 12.382C12.0617 12.8731 12.4024 13.5206 12.3382 13.9908C12.2821 14.3998 11.6433 14.4577 11.6803 13.7754C11.6955 13.4943 11.8647 12.7399 11.9529 12.4588C11.9768 12.3825 11.9219 12.3667 12.0628 12.382Z" fill="#FF8500"/>
<path d="M11.8304 16.7102C12.719 16.5118 12.805 17.6889 12.066 17.7821C11.4244 17.8631 11.198 16.8513 11.8304 16.7102Z" fill="#FF8500"/>
</svg>
