<svg width="25" height="24" viewBox="0 0 25 24" fill="none" xmlns="http://www.w3.org/2000/svg">
<path d="M12.5095 3C15.6954 3 18.3964 5.27146 18.9291 8.38333C19.1272 9.53088 18.8881 10.6109 18.4852 11.6741C17.5257 14.2054 16.1769 16.5444 14.8008 18.8665C14.5413 19.3053 14.2818 19.7474 13.9983 20.1727C13.2642 21.2696 11.69 21.2831 10.99 20.1693C9.38171 17.6042 7.85536 14.9918 6.69779 12.1871C6.41437 11.4986 6.13095 10.7966 6.04559 10.0574C5.78607 7.76568 6.64315 5.89924 8.39829 4.43443C9.57977 3.44214 10.9525 3 12.5095 3ZM12.5027 6.45951C11.229 6.43251 9.95538 7.38767 9.92465 8.99761C9.90074 10.3679 11.0822 11.502 12.4686 11.5155C13.7491 11.529 15.0227 10.5839 15.0603 8.98411C15.0945 7.59018 13.9198 6.46288 12.5027 6.45951Z" fill="#FF8500"/>
</svg>
