<svg width="24" height="25" viewBox="0 0 24 25" fill="none" xmlns="http://www.w3.org/2000/svg">
<path d="M10.5578 7.57591C10.3976 7.77105 10.2574 7.98698 10.0749 8.15733C9.48118 8.70915 8.61893 8.68436 8.07066 8.11734C7.53753 7.56712 7.52638 6.70339 8.07863 6.13398C8.90263 5.28465 9.733 4.43932 10.5897 3.62359C11.4742 2.78146 12.8146 2.79745 13.6888 3.64518C14.5192 4.45052 15.3328 5.27346 16.1425 6.10039C16.7497 6.72019 16.7513 7.55112 16.1688 8.13333C15.5958 8.70675 14.7479 8.70275 14.1327 8.12214C13.9829 7.98058 13.8362 7.83503 13.5996 7.6055C13.5996 8.15973 13.5908 8.59239 13.6027 9.02425C13.6091 9.24498 13.8068 9.27696 13.9685 9.33375C15.8341 9.98874 17.1338 11.2395 17.8526 13.0845C19.2384 16.641 16.9553 20.6517 13.1947 21.4147C10.1554 22.0313 6.8267 20.1391 5.95887 16.9225C5.09105 13.7075 6.86654 10.3822 10.0255 9.33375C10.4754 9.18446 10.7004 8.86696 10.7004 8.38125C10.7004 8.14373 10.7004 7.90621 10.7004 7.66948C10.6534 7.63909 10.6056 7.6087 10.5586 7.57751L10.5578 7.57591ZM11.993 18.6435C13.8801 18.6435 15.3854 17.1424 15.391 15.2558C15.3958 13.3924 13.8673 11.8809 11.9739 11.8769C10.1291 11.8729 8.59502 13.41 8.6006 15.2574C8.60538 17.1592 10.0924 18.6435 11.9938 18.6435H11.993Z" fill="#407BF1"/>
</svg>
