<svg width="25" height="24" viewBox="0 0 25 24" fill="none" xmlns="http://www.w3.org/2000/svg">
<path d="M15.7047 9.39063C12.507 9.38736 9.87793 12.0086 9.87793 15.2002C9.87793 18.4053 12.4832 21.0008 15.6996 21.0008C18.924 21.0008 21.5011 18.4198 21.5002 15.1927C21.4992 11.9941 18.902 9.3939 15.7047 9.39063Z" fill="#FF8500"/>
<path d="M9.28852 9.45798C7.89588 9.42201 6.45929 9.20198 5.13821 8.4807C4.67572 8.22797 4.26419 7.9103 3.94152 7.48893C3.35417 6.72093 3.35837 5.79736 3.94433 5.02749C4.44798 4.366 5.12746 3.93669 5.88644 3.65686C8.30226 2.76646 10.719 2.75712 13.1063 3.77085C13.826 4.07636 14.4555 4.5239 14.8768 5.20548C15.3459 5.96414 15.2907 6.80735 14.744 7.51555C14.2095 8.20788 13.4739 8.60402 12.6756 8.9016C11.6122 9.29868 10.5044 9.44257 9.28758 9.45845L9.28852 9.45798Z" fill="#FF8500"/>
<path d="M8.99623 12.5978C7.48108 12.5113 6.11604 12.2423 4.88942 11.4817C4.33667 11.1393 3.87651 10.7063 3.62632 10.0854C3.4416 9.62666 3.51877 9.14736 3.5197 8.67601C3.5197 8.52371 3.62165 8.62135 3.67309 8.66479C4.01259 8.95349 4.37688 9.20342 4.77204 9.41131C5.81441 9.95975 6.93207 10.24 8.09556 10.3666C8.93497 10.4577 9.77298 10.4671 10.6119 10.3671C10.6774 10.3592 10.7695 10.3274 10.806 10.3965C10.8453 10.4713 10.7555 10.5161 10.7111 10.5652C10.2752 11.0468 9.87727 11.5602 9.61819 12.1568C9.46902 12.5001 9.28196 12.6823 8.9953 12.5968L8.99623 12.5978Z" fill="#FF8500"/>
<path d="M9.13765 18.8931C7.63699 18.8589 6.19479 18.5927 4.89429 17.7938C4.35463 17.4622 3.90616 17.0403 3.64569 16.4438C3.43993 15.9719 3.51568 15.4777 3.52036 14.9918C3.52176 14.8143 3.63587 14.9433 3.68544 14.9853C4.00764 15.2581 4.35323 15.4954 4.72547 15.6944C5.8001 16.269 6.95751 16.5545 8.16169 16.6745C8.3941 16.6974 8.62746 16.7128 8.86034 16.7217C9.00718 16.7273 9.07966 16.7881 9.11707 16.9347C9.2756 17.5486 9.52299 18.1274 9.84893 18.6716C9.94994 18.8403 9.89663 18.8949 9.72127 18.894C9.52626 18.8931 9.33172 18.894 9.13672 18.894L9.13765 18.8931Z" fill="#FF8500"/>
<path d="M8.62782 15.7162C7.15756 15.5746 5.73079 15.2906 4.52007 14.3628C4.03419 13.9905 3.64886 13.5359 3.53662 12.9086C3.47489 12.5624 3.5081 12.2102 3.51605 11.8612C3.52072 11.6636 3.63062 11.7743 3.69281 11.8299C4.28905 12.362 4.98771 12.7156 5.73079 12.9866C6.73294 13.3524 7.77578 13.5196 8.83732 13.5761C9.02344 13.5859 9.07254 13.6289 9.03607 13.8265C8.93412 14.3759 8.83171 14.9285 8.90326 15.4919C8.93225 15.7218 8.7943 15.7302 8.62782 15.7162Z" fill="#FF8500"/>
</svg>
