<svg width="24" height="24" viewBox="0 0 24 24" fill="none" xmlns="http://www.w3.org/2000/svg">
<path d="M11.7769 20.4988C10.1456 20.4988 8.51431 20.4988 6.88302 20.4988C5.78836 20.4988 4.95882 19.7106 5.00158 18.635C5.1042 15.924 6.36776 13.9017 8.82004 12.674C10.6972 11.7337 12.6556 11.6957 14.5584 12.5705C17.1604 13.7686 18.503 15.8437 18.5992 18.6815C18.6335 19.7021 17.7975 20.4988 16.7606 20.5009C15.0993 20.5009 13.4381 20.5009 11.7769 20.5009V20.4988Z" fill="#407BF1"/>
<path d="M15.6598 7.31949C15.6555 9.43257 13.9259 11.1336 11.7836 11.1273C9.64988 11.123 7.93093 9.4051 7.93948 7.28779C7.94804 5.17259 9.66913 3.49481 11.8264 3.49903C13.9558 3.50326 15.6619 5.2064 15.6598 7.31949Z" fill="#407BF1"/>
</svg>
