<svg width="25" height="24" viewBox="0 0 25 24" fill="none" xmlns="http://www.w3.org/2000/svg">
<path d="M12.4974 20C10.4873 20 8.47947 20 6.46935 20C6.02392 20 5.58535 19.9591 5.16505 19.8019C3.74426 19.2678 3.0727 17.6506 3.78995 16.3801C4.92978 14.358 6.0993 12.351 7.25741 10.3397C8.21907 8.66866 9.18073 6.9976 10.1538 5.333C10.6632 4.46302 11.4513 3.99572 12.5134 4.00003C13.5642 4.00434 14.3454 4.47163 14.8479 5.333C16.1613 7.59195 17.4656 9.8552 18.7699 12.1185C19.5877 13.5376 20.4191 14.9481 21.2118 16.3801C22.0798 17.9456 20.8828 19.8773 19.0166 19.9763C18.6671 19.9957 18.3177 20 17.9659 20C16.1431 20 14.3202 20 12.4997 20H12.4974ZM11.4809 11.5456C11.4809 12.3812 11.4718 13.2189 11.4832 14.0544C11.4901 14.5626 11.9469 14.961 12.4883 14.9653C13.0251 14.9696 13.5048 14.5712 13.5071 14.0695C13.5185 12.3812 13.5139 10.695 13.5071 9.00675C13.5071 8.68374 13.3357 8.42748 13.0525 8.25305C12.7259 8.05278 12.3718 8.04417 12.0292 8.20352C11.6728 8.36933 11.481 8.66005 11.4787 9.03474C11.4718 9.87027 11.4764 10.708 11.4764 11.5435L11.4809 11.5456ZM12.4906 17.9349C13.0616 17.9392 13.5071 17.5322 13.5162 17.0024C13.5253 16.4555 13.089 16.0398 12.5089 16.0377C11.9332 16.0355 11.4924 16.4339 11.4832 16.9658C11.4741 17.5106 11.9127 17.9327 12.4906 17.9349Z" fill="#FF8500"/>
</svg>
