<svg width="25" height="24" viewBox="0 0 25 24" fill="none" xmlns="http://www.w3.org/2000/svg">
<path d="M14.9565 20.7371C13.8978 20.7371 12.8385 20.738 11.7798 20.7366C11.3807 20.7361 11.2305 20.6235 11.131 20.244C11.0025 19.7541 10.8736 19.2642 10.7592 18.7712C10.7215 18.6087 10.6525 18.551 10.4836 18.5519C10.0314 18.5551 9.57786 18.5846 9.13475 18.4357C8.24035 18.1351 7.64832 17.5358 7.33052 16.656C7.12258 16.0798 6.9033 15.5073 6.71942 14.9239C6.63906 14.6683 6.48924 14.5394 6.25225 14.459C5.93898 14.3528 5.66522 14.1803 5.46273 13.911C4.98693 13.2791 5.01099 12.495 5.52584 11.8353C5.93535 11.3105 6.33488 10.7779 6.75938 10.2658C6.96958 10.012 7.06856 9.75277 7.04586 9.42089C6.99001 8.60776 7.13303 7.82596 7.45673 7.07503C8.52048 4.60704 11.1079 2.90405 13.94 3.32628C15.48 3.55601 16.8638 4.15484 17.9852 5.2599C18.954 6.21423 19.4925 7.40055 19.7327 8.72943C19.8784 9.53802 19.9234 10.3512 19.8257 11.1679C19.7467 11.8289 19.4998 12.4387 19.2296 13.0407C18.7656 14.0754 18.308 15.1132 17.8408 16.1466C17.7582 16.3291 17.7414 16.4975 17.7981 16.6914C18.1014 17.7288 18.3956 18.7685 18.6925 19.8077C18.7112 19.8731 18.7334 19.9375 18.7493 20.0038C18.8551 20.4456 18.6326 20.7352 18.1786 20.7366C17.3087 20.7393 16.4388 20.7375 15.569 20.7375C15.3647 20.7375 15.1603 20.7375 14.9565 20.7375V20.7371ZM15.4373 8.19189C15.4446 6.91567 14.3536 5.93456 13.0801 6.07121C12.0717 6.17927 11.2622 7.02736 11.2037 8.03753C11.1796 8.44931 11.4397 8.7081 11.8016 8.62547C12.0985 8.55736 12.1394 8.3122 12.1693 8.06522C12.217 7.67114 12.4054 7.36922 12.7505 7.1681C13.3189 6.83667 14.0635 7.06458 14.3563 7.65934C14.6664 8.28859 14.4208 8.90831 13.762 9.16029C13.7057 9.18208 13.6499 9.20614 13.5945 9.23021C13.1146 9.43905 12.8808 9.81905 12.8458 10.3285C12.8295 10.5654 12.9911 10.7675 13.2095 10.8106C13.4637 10.861 13.7071 10.7552 13.7488 10.5191C13.802 10.219 13.9827 10.0946 14.2392 9.99339C15.0505 9.67286 15.4291 9.05314 15.4377 8.19189H15.4373ZM13.792 11.9997C13.7897 11.7441 13.565 11.5243 13.3112 11.5302C13.0665 11.5361 12.8517 11.7513 12.8463 11.9951C12.8408 12.2457 13.0651 12.4741 13.3175 12.4759C13.5722 12.4777 13.7938 12.2548 13.792 11.9997Z" fill="#FF8500"/>
</svg>
