<svg width="24" height="24" viewBox="0 0 24 24" fill="none" xmlns="http://www.w3.org/2000/svg">
<path d="M12.1728 19.9993C8.69026 19.9966 5.56778 17.7695 4.45156 14.5199C3.19748 10.8648 4.6202 6.89375 7.91666 4.85939C8.44934 4.53148 9.01549 4.2705 9.60973 4.07375C10.2348 3.8663 10.8196 4.14067 11.0445 4.74161C11.2493 5.29035 10.9655 5.92743 10.3833 6.15094C9.67398 6.42263 8.99675 6.74786 8.41187 7.24039C7.19125 8.26694 6.43372 9.56385 6.2865 11.1539C6.05094 13.6941 7.04938 15.675 9.23632 16.9705C10.9762 18.0024 12.8339 18.0573 14.6782 17.2101C16.1906 16.5141 17.2198 15.3484 17.7873 13.7798C17.9988 13.1962 18.3548 12.9072 18.8647 12.9031C19.6383 12.8978 20.1951 13.65 19.9395 14.3834C19.1164 16.7443 17.5571 18.428 15.2524 19.4024C14.2593 19.8226 13.214 20.0221 12.1754 19.9993H12.1728Z" fill="#407BF1"/>
<path d="M19.9985 9.54831C19.9945 10.1746 19.6319 10.6323 19.1608 10.7259C18.6028 10.837 18.0742 10.5908 17.8748 10.0943C17.6687 9.57909 17.4667 9.06656 17.1589 8.59953C16.4215 7.48079 15.4286 6.68724 14.1667 6.23894C13.7451 6.08907 13.3999 5.8696 13.2861 5.41194C13.1791 4.98371 13.2861 4.59965 13.614 4.29588C13.9472 3.98809 14.3433 3.93055 14.7568 4.07641C17.0732 4.89405 18.7353 6.42228 19.7108 8.6825C19.8473 8.99965 19.9919 9.31546 19.9985 9.54697V9.54831Z" fill="#407BF1"/>
</svg>
