<svg width="24" height="24" viewBox="0 0 24 24" fill="none" xmlns="http://www.w3.org/2000/svg">
<path d="M12.3354 17.7156C10.2149 17.7156 8.09366 17.7156 5.97308 17.7156C5.77791 17.7156 5.58518 17.7113 5.40531 17.6238C5.01619 17.4348 4.88954 17.0151 5.10306 16.5807C5.48607 15.8037 5.87152 15.0273 6.26859 14.2576C6.40319 13.9963 6.46805 13.7357 6.46499 13.4402C6.45336 12.4105 6.43745 11.3802 6.46499 10.3511C6.5329 7.88115 7.69353 6.09768 9.90405 4.99945C10.0711 4.91624 10.1677 4.81896 10.221 4.62991C10.5049 3.62713 11.3247 3.00245 12.3312 3.00001C13.3633 2.99756 14.185 3.61244 14.4738 4.62563C14.527 4.81346 14.62 4.91318 14.7889 4.997C17.0024 6.09217 18.1594 7.87931 18.231 10.3468C18.2616 11.4065 18.2408 12.4674 18.2334 13.5277C18.2316 13.7596 18.2824 13.9657 18.3864 14.1713C18.7749 14.9343 19.1542 15.7021 19.5378 16.4675C19.9062 17.2023 19.5905 17.7138 18.759 17.7144C16.6176 17.7168 14.4768 17.715 12.3354 17.715V17.7156Z" fill="#407BF1"/>
<path d="M12.357 18.5148C13.2527 18.5148 14.1485 18.5142 15.0442 18.516C15.1317 18.516 15.2448 18.4861 15.2938 18.5839C15.3433 18.6831 15.2497 18.7516 15.1947 18.8207C13.7728 20.614 10.9547 20.6189 9.51021 18.8311C9.45392 18.7614 9.35909 18.6886 9.39763 18.5956C9.44475 18.4799 9.57323 18.5166 9.67051 18.5166C10.5662 18.5142 11.4619 18.5148 12.3576 18.5154L12.357 18.5148Z" fill="#407BF1"/>
</svg>
