<svg width="32" height="30" viewBox="0 0 32 30" fill="none" xmlns="http://www.w3.org/2000/svg">
<path d="M8.03139 6.87085C7.30507 6.87085 6.65294 7.30235 6.36852 7.9701L3.71899 14.1927C3.53611 14.6216 3.23998 14.9932 2.86185 15.2666L1.32264 16.3808C0.787005 16.7687 0.466797 17.3954 0.466797 18.056V20.1302H14.4434V6.87085H8.03074H8.03139ZM13.0005 14.442C13.0005 14.9411 12.5944 15.3466 12.0958 15.3466H6.38935C6.08216 15.3466 5.79774 15.1924 5.63048 14.9346C5.46322 14.6769 5.43718 14.3554 5.56279 14.0736L7.7997 9.04592C7.94483 8.71986 8.26894 8.50834 8.62625 8.50834H12.0958C12.595 8.50834 13.0005 8.91446 13.0005 9.41299V14.4413V14.442Z" fill="white"/>
<path d="M10.9309 10.2558C10.5248 10.3091 10.1434 10.4042 9.78611 10.5415C9.69239 10.5773 9.59997 10.6157 9.50951 10.6573C9.56873 10.8057 9.6592 10.9398 9.77374 11.0524C9.87657 11.0075 9.98266 10.9658 10.0907 10.9294C10.297 10.8584 10.5124 10.8025 10.737 10.7608C10.8619 10.738 10.9895 10.7192 11.1203 10.7055C11.1555 10.6287 11.1821 10.5473 11.1984 10.4634C11.2114 10.3944 11.2277 10.3143 11.2342 10.2245C11.1314 10.2323 11.0305 10.2427 10.9309 10.2564V10.2558ZM12.7988 10.2792C12.709 10.2668 12.6205 10.2558 12.5326 10.2466C12.4317 10.2356 12.3322 10.2271 12.2332 10.2213C12.1291 10.2141 12.0256 10.2089 11.9241 10.2063C11.6872 10.2004 11.4568 10.2063 11.2342 10.2239C11.1314 10.2317 11.0305 10.2421 10.9309 10.2558C10.5248 10.3091 10.1434 10.4042 9.78611 10.5415C9.69239 10.5773 9.59997 10.6157 9.50951 10.6573C9.37153 10.7211 9.23746 10.7907 9.10794 10.8682C9.02008 10.9196 8.93417 10.9749 8.85022 11.0335C8.75715 11.0973 8.66603 11.1656 8.57817 11.2372C7.1164 12.4217 6.74348 14.2512 6.65627 14.8793C6.63935 15.0029 6.63284 15.0804 6.63154 15.0966C6.62177 15.2255 6.71875 15.3374 6.84761 15.3472C6.85347 15.3472 6.85933 15.3472 6.86518 15.3472C6.98689 15.3472 7.08907 15.2535 7.09818 15.1305C7.09818 15.1259 7.10599 15.0335 7.13072 14.8793H12.0959C12.3367 14.8793 12.5326 14.6834 12.5326 14.4425V10.7185C12.5996 10.7263 12.6667 10.7341 12.735 10.7439C12.8632 10.7615 12.981 10.6716 12.9986 10.5434C12.9986 10.5376 12.9999 10.5324 13.0006 10.5272V10.5005C12.996 10.3898 12.912 10.2948 12.7988 10.2792ZM11.9117 13.2567C11.3761 13.7507 10.8073 14.0006 10.2189 14.0006C10.1896 14.0006 10.1603 14 10.1304 13.9987C9.17693 13.9583 8.53847 13.2717 8.51178 13.2424C8.42457 13.1474 8.43108 12.999 8.52675 12.9118C8.62177 12.8246 8.76951 12.8304 8.85672 12.9261C8.90944 12.9827 10.1284 14.2636 11.5941 12.9124C11.6891 12.8246 11.8375 12.8311 11.9247 12.9255C12.0126 13.0205 12.0061 13.1689 11.9117 13.2561V13.2567ZM9.17238 12.2935C9.17238 12.1458 9.29213 12.0254 9.44052 12.0254C9.58891 12.0254 9.70866 12.1458 9.70866 12.2935C9.70866 12.4412 9.58891 12.5617 9.44052 12.5617C9.29213 12.5617 9.17238 12.4419 9.17238 12.2935ZM10.6088 12.2935C10.6088 12.1458 10.7285 12.0254 10.8769 12.0254C11.0253 12.0254 11.145 12.1458 11.145 12.2935C11.145 12.4412 11.0253 12.5617 10.8769 12.5617C10.7285 12.5617 10.6088 12.4419 10.6088 12.2935ZM11.5102 11.2711C11.3136 11.3895 11.0923 11.4487 10.8496 11.4487C10.6849 11.4487 10.5098 11.4214 10.3256 11.3661C10.1415 11.4214 9.96639 11.4487 9.80108 11.4487C9.60257 11.4487 9.41839 11.409 9.24982 11.329C9.36437 11.2567 9.48347 11.1904 9.60583 11.1305C9.66115 11.1031 9.71712 11.0771 9.77439 11.0517C9.87722 11.0068 9.98331 10.9652 10.0913 10.9287C10.2977 10.8578 10.5131 10.8018 10.7376 10.7602C10.8626 10.7374 10.9901 10.7185 11.121 10.7048C11.3091 10.6847 11.503 10.6736 11.7035 10.6723C11.8167 10.6716 11.9319 10.6736 12.049 10.6788C11.9325 10.8955 11.7601 11.1194 11.5102 11.2704V11.2711Z" fill="#FBD122"/>
<path d="M30.7852 8.6782V20.1315H14.9121V6.87085H28.9785C29.9749 6.87085 30.7852 7.68178 30.7852 8.6782Z" fill="white"/>
<path d="M19.5141 26.19C19.5141 26.3189 19.4093 26.4236 19.2804 26.4236H10.9856C10.8567 26.4236 10.752 26.3189 10.752 26.19C10.752 26.0611 10.8567 25.9557 10.9856 25.9557H19.2804C19.4093 25.9557 19.5141 26.0605 19.5141 26.19Z" fill="#2762B7"/>
<path d="M12.1559 16.3092H10.9343C10.4683 16.3092 10.0889 16.688 10.0889 17.1546C10.0889 17.6213 10.4677 18.0001 10.9343 18.0001H12.1559C12.6219 18.0001 13.0013 17.6206 13.0013 17.1546C13.0013 16.6886 12.6225 16.3092 12.1559 16.3092ZM12.1559 17.5315H10.9343C10.726 17.5315 10.5568 17.3622 10.5568 17.1546C10.5568 16.947 10.726 16.7778 10.9343 16.7778H12.1559C12.3642 16.7778 12.5327 16.9464 12.5327 17.1546C12.5327 17.3629 12.3642 17.5315 12.1559 17.5315Z" fill="#215CA3"/>
<path d="M12.5326 17.1545C12.5326 17.3622 12.364 17.5314 12.1557 17.5314H10.9341C10.7259 17.5314 10.5566 17.3622 10.5566 17.1545C10.5566 16.9469 10.7259 16.7777 10.9341 16.7777H12.1557C12.364 16.7777 12.5326 16.9463 12.5326 17.1545Z" fill="#E96248"/>
<path d="M25.9889 11.9154H24.52V10.4465C24.52 9.98051 24.1412 9.60107 23.6746 9.60107H22.0624C21.5965 9.60107 21.217 9.97986 21.217 10.4465V11.9154H19.7481C19.2821 11.9154 18.9033 12.2942 18.9033 12.7602V14.373C18.9033 14.839 19.2821 15.2177 19.7481 15.2177H21.217V16.6867C21.217 17.1527 21.5958 17.5321 22.0624 17.5321H23.6746C24.1405 17.5321 24.52 17.1527 24.52 16.6867V15.2177H25.9889C26.4549 15.2177 26.8337 14.839 26.8337 14.373V12.7602C26.8337 12.2942 26.4549 11.9154 25.9889 11.9154ZM26.3657 14.3723C26.3657 14.5799 26.1965 14.7491 25.9889 14.7491H24.3247C24.3182 14.7491 24.3117 14.7504 24.3052 14.7517C24.2987 14.7511 24.2922 14.7491 24.285 14.7491C24.1562 14.7491 24.0514 14.8539 24.0514 14.9834V16.6867C24.0514 16.8943 23.8822 17.0635 23.6746 17.0635H22.0624C21.8548 17.0635 21.6856 16.8943 21.6856 16.6867V14.9834C21.6856 14.8539 21.5808 14.7491 21.452 14.7491C21.4429 14.7491 21.4344 14.7511 21.4259 14.7517C21.4168 14.7511 21.409 14.7491 21.3999 14.7491H19.7487C19.5411 14.7491 19.3719 14.5806 19.3719 14.3723V12.7596C19.3719 12.5519 19.5411 12.3827 19.7487 12.3827H21.452C21.5808 12.3827 21.6856 12.2779 21.6856 12.1491V10.4459C21.6856 10.2376 21.8548 10.069 22.0624 10.069H23.6746C23.8822 10.069 24.0514 10.2376 24.0514 10.4459V12.1491C24.0514 12.2779 24.1562 12.3827 24.285 12.3827H25.9883C26.1959 12.3827 26.3651 12.5519 26.3651 12.7596V14.3723H26.3657Z" fill="#215CA3"/>
<path d="M26.3659 12.7601V14.3729C26.3659 14.5805 26.1967 14.7497 25.9891 14.7497H24.3249C24.3184 14.7497 24.3119 14.751 24.3054 14.7523C24.2989 14.7516 24.2923 14.7497 24.2852 14.7497C24.1563 14.7497 24.0515 14.8545 24.0515 14.984V16.6872C24.0515 16.8948 23.8823 17.064 23.6747 17.064H22.0626C21.855 17.064 21.6858 16.8948 21.6858 16.6872V14.984C21.6858 14.8545 21.581 14.7497 21.4521 14.7497C21.443 14.7497 21.4345 14.7516 21.4261 14.7523C21.417 14.7516 21.4092 14.7497 21.4001 14.7497H19.7489C19.5413 14.7497 19.3721 14.5811 19.3721 14.3729V12.7601C19.3721 12.5525 19.5413 12.3833 19.7489 12.3833H21.4521C21.581 12.3833 21.6858 12.2785 21.6858 12.1496V10.4464C21.6858 10.2381 21.855 10.0696 22.0626 10.0696H23.6747C23.8823 10.0696 24.0515 10.2381 24.0515 10.4464V12.1496C24.0515 12.2785 24.1563 12.3833 24.2852 12.3833H25.9884C26.196 12.3833 26.3652 12.5525 26.3652 12.7601H26.3659Z" fill="#E96248"/>
<path d="M11.2159 25.9557C11.1411 23.9141 9.45674 22.2772 7.39687 22.2772C5.33699 22.2772 3.6533 23.9141 3.57845 25.9557C3.57585 26.0032 3.5752 26.0507 3.5752 26.0989C3.5752 26.2082 3.57975 26.3163 3.58951 26.4237C3.75482 28.3801 5.39947 29.9206 7.39752 29.9206C9.39557 29.9206 11.0409 28.3794 11.2055 26.4237C11.2153 26.3163 11.2198 26.2082 11.2198 26.0989C11.2198 26.0507 11.2192 26.0032 11.2166 25.9557H11.2159ZM7.39687 29.4526C5.54721 29.4526 4.04314 27.9486 4.04314 26.0989C4.04314 24.2492 5.54721 22.7445 7.39687 22.7445C9.24653 22.7445 10.7512 24.2492 10.7512 26.0989C10.7512 27.9486 9.24653 29.4526 7.39687 29.4526Z" fill="#215CA3"/>
<path d="M7.39767 22.7445C5.54801 22.7445 4.04395 24.2492 4.04395 26.0989C4.04395 27.9485 5.54801 29.4526 7.39767 29.4526C9.24733 29.4526 10.752 27.9485 10.752 26.0989C10.752 24.2492 9.24733 22.7445 7.39767 22.7445ZM7.39767 27.9316C6.42989 27.9316 5.64238 27.1441 5.64238 26.1763C5.64238 25.2085 6.42989 24.4217 7.39767 24.4217C8.36546 24.4217 9.15296 25.2092 9.15296 26.1763C9.15296 27.1435 8.36546 27.9316 7.39767 27.9316Z" fill="#3272D8"/>
<path d="M7.39787 24.4218C6.43008 24.4218 5.64258 25.2093 5.64258 26.1764C5.64258 27.1435 6.43008 27.9317 7.39787 27.9317C8.36565 27.9317 9.15315 27.1442 9.15315 26.1764C9.15315 25.2086 8.36565 24.4218 7.39787 24.4218ZM7.39787 27.4637C6.68846 27.4637 6.11052 26.8864 6.11052 26.1764C6.11052 25.4663 6.68846 24.8897 7.39787 24.8897C8.10727 24.8897 8.68521 25.467 8.68521 26.1764C8.68521 26.8858 8.10792 27.4637 7.39787 27.4637Z" fill="#215CA3"/>
<path d="M8.68503 26.1763C8.68503 26.8864 8.10775 27.4637 7.39769 27.4637C6.68764 27.4637 6.11035 26.8864 6.11035 26.1763C6.11035 25.4663 6.68829 24.8896 7.39769 24.8896C8.1071 24.8896 8.68503 25.4669 8.68503 26.1763Z" fill="white"/>
<path d="M26.6844 25.9558C26.5698 23.9506 24.9024 22.3547 22.8685 22.3547C20.8347 22.3547 19.1679 23.9506 19.0534 25.9558C19.0488 26.0287 19.0469 26.1029 19.0469 26.1771C19.0469 26.2604 19.0495 26.3424 19.0553 26.4244C19.1822 28.4172 20.8445 30 22.8685 30C24.8926 30 26.5555 28.4172 26.6824 26.4244C26.6883 26.343 26.6909 26.2604 26.6909 26.1771C26.6909 26.1029 26.6889 26.0293 26.6844 25.9558ZM22.8685 29.5308C21.0234 29.5308 19.522 28.0332 19.5148 26.1894V26.1764C19.5148 24.3274 21.0195 22.8227 22.8685 22.8227C24.7176 22.8227 26.2229 24.3274 26.2229 26.1764C26.2229 28.0254 24.7182 29.5308 22.8685 29.5308Z" fill="#215CA3"/>
<path d="M22.8684 22.8226C21.0194 22.8226 19.5146 24.3274 19.5146 26.1764C19.5146 28.0254 21.0194 29.5307 22.8684 29.5307C24.7174 29.5307 26.2228 28.026 26.2228 26.1764C26.2228 24.3267 24.718 22.8226 22.8684 22.8226ZM22.8684 28.0104C21.9006 28.0104 21.1137 27.2229 21.1137 26.2551C21.1137 25.2873 21.9012 24.4998 22.8684 24.4998C23.8355 24.4998 24.6237 25.2873 24.6237 26.2551C24.6237 27.2229 23.8362 28.0104 22.8684 28.0104Z" fill="#3272D8"/>
<path d="M22.8679 24.4999C21.9001 24.4999 21.1133 25.2874 21.1133 26.2552C21.1133 27.223 21.9008 28.0105 22.8679 28.0105C23.8351 28.0105 24.6232 27.223 24.6232 26.2552C24.6232 25.2874 23.8357 24.4999 22.8679 24.4999ZM22.8679 27.5419C22.1585 27.5419 21.5812 26.9639 21.5812 26.2545C21.5812 25.5451 22.1585 24.9672 22.8679 24.9672C23.5773 24.9672 24.1553 25.5445 24.1553 26.2545C24.1553 26.9646 23.578 27.5419 22.8679 27.5419Z" fill="#215CA3"/>
<path d="M24.1551 26.2551C24.1551 26.9645 23.5778 27.5425 22.8677 27.5425C22.1577 27.5425 21.5811 26.9645 21.5811 26.2551C21.5811 25.5457 22.1583 24.9678 22.8677 24.9678C23.5771 24.9678 24.1551 25.5451 24.1551 26.2551Z" fill="white"/>
<path d="M28.9788 6.40288H20.0208V5.23269C20.0208 4.17184 19.1578 3.30884 18.097 3.30884C17.0361 3.30884 16.1731 4.17184 16.1731 5.23269V6.40288H8.03189C7.11813 6.40288 6.29678 6.94633 5.93882 7.78655L3.28929 14.0091C3.1396 14.3599 2.89749 14.6639 2.58835 14.8878L1.04914 16.002C0.392451 16.4777 0 17.2457 0 18.0566V24.1744C0 25.4149 1.00944 26.4231 2.24927 26.4231H3.80931C3.93882 26.4231 4.04361 26.3183 4.04361 26.1894C4.04361 26.0605 3.93882 25.9551 3.80931 25.9551H2.24927C1.26717 25.9551 0.467947 25.1565 0.467947 24.1744V23.5893H1.48194C2.16987 23.5893 2.73023 23.0296 2.73023 22.3417V20.5994H14.4445V26.1901C14.4445 26.3189 14.5493 26.4237 14.6788 26.4237C14.8083 26.4237 14.9125 26.3189 14.9125 26.1901V20.5994H28.5233V22.3417C28.5233 23.0296 29.0836 23.5893 29.7716 23.5893H30.7856V24.1744C30.7856 25.1565 29.9863 25.9551 29.0042 25.9551H26.5083C26.3794 25.9551 26.2747 26.0599 26.2747 26.1894C26.2747 26.3189 26.3794 26.4231 26.5083 26.4231H29.0042C30.2447 26.4231 31.2535 25.4143 31.2535 24.1744V8.67753C31.2535 7.42273 30.233 6.40223 28.9782 6.40223L28.9788 6.40288ZM2.26228 22.3417C2.26228 22.7719 1.91214 23.1214 1.48194 23.1214H0.467947V20.5994H2.26228V22.3417ZM0.467947 20.1315V18.0573C0.467947 17.3961 0.787504 16.77 1.32379 16.3821L2.863 15.2678C3.24113 14.9945 3.53661 14.6229 3.72014 14.194L6.36967 7.97138C6.65343 7.30363 7.30622 6.87213 8.03254 6.87213H14.4452V20.1328H0.467947V20.1315ZM16.6411 5.23269C16.6411 4.42957 17.2938 3.77678 18.097 3.77678C18.9001 3.77678 19.5529 4.42957 19.5529 5.23269V5.38238H16.6411V5.23269ZM16.6411 5.85033H19.5529V6.40288H16.6411V5.85033ZM30.7856 23.1214H29.7716C29.3414 23.1214 28.9912 22.7719 28.9912 22.3417V20.5994H30.7856V23.1214ZM30.7856 20.1315H14.9125V6.87083H28.9788C29.9753 6.87083 30.7856 7.68176 30.7856 8.67818V20.1315Z" fill="#215CA3"/>
<path d="M30.7855 20.5994V23.1213H29.7716C29.3414 23.1213 28.9912 22.7718 28.9912 22.3416V20.5994H30.7855Z" fill="#AEC8FD"/>
<path d="M30.7855 23.5893V24.1744C30.7855 25.1565 29.9863 25.9551 29.0042 25.9551H26.684C26.5694 23.9499 24.902 22.354 22.8682 22.354C20.8343 22.354 19.1676 23.9499 19.053 25.9551H14.9131V20.5988H28.5239V22.341C28.5239 23.029 29.0843 23.5887 29.7722 23.5887H30.7862L30.7855 23.5893Z" fill="#6A9BFF"/>
<path d="M2.26211 20.5994V22.3416C2.26211 22.7718 1.91196 23.1213 1.48177 23.1213H0.467773V20.5994H2.26211Z" fill="#AEC8FD"/>
<path d="M14.4447 20.5994V25.9557H11.2172C11.1424 23.914 9.45801 22.2772 7.39814 22.2772C5.33826 22.2772 3.65456 23.914 3.57972 25.9557H2.25007C1.26797 25.9557 0.46875 25.1571 0.46875 24.175V23.5899H1.48274C2.17067 23.5899 2.73103 23.0302 2.73103 22.3423V20.6H14.4453L14.4447 20.5994Z" fill="#6A9BFF"/>
<path d="M19.5534 5.23264V5.38233H16.6416V5.23264C16.6416 4.42952 17.2944 3.77673 18.0975 3.77673C18.9006 3.77673 19.5534 4.42952 19.5534 5.23264Z" fill="#FBD122"/>
<path d="M19.5534 5.85034H16.6416V6.4029H19.5534V5.85034Z" fill="#E96248"/>
<path d="M18.0966 2.21022C17.9671 2.21022 17.8623 2.10543 17.8623 1.97592V0.234299C17.8623 0.104784 17.9671 0 18.0966 0C18.2261 0 18.3309 0.104784 18.3309 0.234299V1.97657C18.3309 2.10609 18.2261 2.21087 18.0966 2.21087V2.21022Z" fill="#215CA3"/>
<path d="M15.0098 4.40097H13.2675C13.138 4.40097 13.0332 4.29619 13.0332 4.16667C13.0332 4.03716 13.138 3.93237 13.2675 3.93237H15.0098C15.1393 3.93237 15.2441 4.03716 15.2441 4.16667C15.2441 4.29619 15.1393 4.40097 15.0098 4.40097Z" fill="#215CA3"/>
<path d="M16.0029 2.77649C15.9398 2.77649 15.8767 2.75111 15.8305 2.701L14.6498 1.42017C14.562 1.32514 14.5685 1.17741 14.6635 1.08954C14.7585 1.00168 14.9069 1.00819 14.9941 1.10321L16.1747 2.38404C16.2626 2.47907 16.2561 2.6268 16.1611 2.71467C16.1162 2.75632 16.0595 2.77649 16.0023 2.77649H16.0029Z" fill="#215CA3"/>
<path d="M22.9258 4.40097H21.1835C21.054 4.40097 20.9492 4.29619 20.9492 4.16667C20.9492 4.03716 21.054 3.93237 21.1835 3.93237H22.9258C23.0553 3.93237 23.1601 4.03716 23.1601 4.16667C23.1601 4.29619 23.0553 4.40097 22.9258 4.40097Z" fill="#215CA3"/>
<path d="M20.1902 2.77648C20.1336 2.77648 20.077 2.75631 20.0314 2.71465C19.9364 2.62679 19.9305 2.47905 20.0178 2.38403L21.1984 1.1032C21.2862 1.00818 21.434 1.00232 21.529 1.08953C21.624 1.17739 21.6299 1.32513 21.5426 1.42015L20.362 2.70099C20.3158 2.7511 20.2527 2.77648 20.1896 2.77648H20.1902Z" fill="#215CA3"/>
<path d="M11.9115 13.2568C11.3758 13.7508 10.807 14.0007 10.2187 14.0007C10.1894 14.0007 10.1601 14 10.1301 13.9987C9.17668 13.9584 8.53821 13.2718 8.51153 13.2425C8.42432 13.1475 8.43083 12.9991 8.5265 12.9119C8.62152 12.8246 8.76926 12.8305 8.85647 12.9262C8.90918 12.9828 10.1282 14.2636 11.5939 12.9125C11.6889 12.8246 11.8373 12.8311 11.9245 12.9255C12.0123 13.0205 12.0058 13.1689 11.9115 13.2561V13.2568Z" fill="#2762B7"/>
<path d="M9.70816 12.2935C9.70816 12.4413 9.58841 12.5617 9.44002 12.5617C9.29163 12.5617 9.17188 12.4419 9.17188 12.2935C9.17188 12.1451 9.29163 12.0254 9.44002 12.0254C9.58841 12.0254 9.70816 12.1458 9.70816 12.2935Z" fill="#2762B7"/>
<path d="M11.1447 12.2935C11.1447 12.4413 11.0249 12.5617 10.8765 12.5617C10.7282 12.5617 10.6084 12.4419 10.6084 12.2935C10.6084 12.1451 10.7282 12.0254 10.8765 12.0254C11.0249 12.0254 11.1447 12.1458 11.1447 12.2935Z" fill="#2762B7"/>
<path d="M12.1549 9.85613C12.0736 9.84312 11.9968 9.89909 11.9831 9.97979C11.9831 9.98239 11.9669 10.0748 11.9246 10.2063C11.8816 10.339 11.812 10.5115 11.7033 10.6723C11.6148 10.8031 11.5002 10.9267 11.3544 11.014C11.1859 11.1155 10.99 11.1591 10.77 11.1454C10.921 11.0276 11.042 10.8766 11.1208 10.7042C11.1559 10.6274 11.1826 10.546 11.1989 10.4621C11.2119 10.3931 11.2282 10.313 11.2347 10.2232C11.2418 10.1256 11.2373 10.0175 11.2041 9.90234L11.2015 9.89453C11.1305 9.65828 10.8767 9.52226 10.6235 9.58474C10.4908 9.61728 10.3938 9.67976 10.3248 9.7533C10.2552 9.67976 10.1582 9.61728 10.0254 9.58474C9.77291 9.52226 9.51908 9.65828 9.44749 9.89518L9.44554 9.90299C9.38306 10.1217 9.42211 10.3176 9.45075 10.4608C9.46441 10.5278 9.48394 10.5929 9.50932 10.6554C9.56855 10.8037 9.65901 10.9378 9.77356 11.0504C9.8074 11.0842 9.84255 11.1148 9.8803 11.1441C9.78397 11.15 9.6922 11.1448 9.60499 11.1292C9.4937 11.109 9.39022 11.0699 9.29585 11.0127C9.22621 10.971 9.16373 10.9209 9.10776 10.8656C8.75957 10.5226 8.66845 9.98435 8.6665 9.97849C8.65348 9.89714 8.57668 9.84116 8.49533 9.85418C8.41398 9.8672 8.358 9.94399 8.37102 10.026C8.37558 10.0546 8.4706 10.6209 8.85003 11.0309C8.93269 11.12 9.02836 11.2014 9.13965 11.2691C9.17545 11.2906 9.21189 11.3101 9.24899 11.3277C9.41756 11.4071 9.60109 11.4474 9.80024 11.4474C9.96555 11.4474 10.14 11.4201 10.3248 11.3648C10.509 11.4201 10.6841 11.4474 10.8487 11.4474C11.0915 11.4474 11.3128 11.3882 11.5093 11.2697C11.7592 11.1187 11.9317 10.8949 12.0482 10.6781C12.1406 10.5076 12.1986 10.3417 12.233 10.2199C12.2643 10.1106 12.2767 10.0364 12.278 10.0266C12.291 9.9453 12.2356 9.8685 12.1543 9.85483L12.1549 9.85613ZM10.3248 11.0517C10.2402 11.0218 10.1615 10.9808 10.0905 10.9294C9.95254 10.8304 9.84645 10.6957 9.78527 10.5415C9.7677 10.4972 9.75403 10.451 9.74427 10.4035C9.71889 10.2779 9.69025 10.1353 9.73256 9.98695L9.73386 9.98239C9.75924 9.90104 9.85687 9.85353 9.95319 9.87696C10.1003 9.91275 10.153 10.0071 10.1719 10.0703C10.1693 10.0872 10.1673 10.1028 10.1673 10.1171C10.1654 10.1991 10.2291 10.2668 10.3118 10.2701C10.3131 10.2701 10.3144 10.2701 10.3157 10.2701C10.3222 10.2707 10.3294 10.272 10.3359 10.2714C10.4192 10.2694 10.4836 10.2004 10.4817 10.1178C10.4817 10.1034 10.4797 10.0878 10.4771 10.0709C10.4953 10.0078 10.548 9.91406 10.6951 9.87761C10.7908 9.85418 10.8897 9.90104 10.9138 9.98239L10.9151 9.98695C10.9418 10.08 10.9405 10.1705 10.9301 10.2564C10.9236 10.3078 10.9138 10.3566 10.9047 10.4041C10.878 10.5356 10.8201 10.6567 10.7368 10.7614C10.6333 10.8916 10.4908 10.9944 10.3248 11.0524V11.0517Z" fill="#2762B7"/>
<path d="M10.7371 10.7609C10.6336 10.891 10.4911 10.9939 10.3251 11.0518C10.2405 11.0218 10.1618 10.9808 10.0908 10.9294C10.2971 10.8585 10.5126 10.8025 10.7371 10.7609Z" fill="#FBD122"/>
<path d="M12.0959 8.50891H8.62635C8.26904 8.50891 7.94493 8.71978 7.79979 9.0465L5.56289 14.0742C5.43793 14.3553 5.46331 14.6775 5.63058 14.9352C5.79784 15.1929 6.08225 15.3472 6.38944 15.3472H12.0959C12.5951 15.3472 13.0006 14.9411 13.0006 14.4425V9.41421C13.0006 8.91503 12.5945 8.50956 12.0959 8.50956V8.50891ZM12.5326 14.4419C12.5326 14.6827 12.3367 14.8786 12.0959 14.8786H6.38944C6.23845 14.8786 6.10568 14.8063 6.02303 14.6801C5.94102 14.5532 5.92866 14.4022 5.99048 14.2648L8.22739 9.23654C8.29703 9.07904 8.45388 8.97686 8.62635 8.97686H12.0959C12.3367 8.97686 12.5326 9.17276 12.5326 9.41356V14.4419Z" fill="#215CA3"/>
<path d="M10.931 10.2557C10.5249 10.3091 10.1435 10.4041 9.78621 10.5415C9.76864 10.4972 9.75497 10.451 9.74521 10.4035C9.71983 10.2779 9.69119 10.1353 9.73349 9.98694L9.7348 9.98239C9.76018 9.90104 9.8578 9.85352 9.95413 9.87695C10.1012 9.91275 10.1539 10.0071 10.1728 10.0703C10.1702 10.0872 10.1682 10.1028 10.1682 10.1171C10.1663 10.1991 10.2301 10.2668 10.3127 10.2701C10.314 10.2701 10.3153 10.2701 10.3166 10.2701C10.3231 10.2707 10.3303 10.272 10.3368 10.2714C10.4201 10.2694 10.4846 10.2004 10.4826 10.1178C10.4826 10.1034 10.4806 10.0878 10.478 10.0709C10.4963 10.0078 10.549 9.91405 10.6961 9.87761C10.7917 9.85418 10.8907 9.90104 10.9148 9.98239L10.9161 9.98694C10.9427 10.08 10.9414 10.1705 10.931 10.2564V10.2557Z" fill="#AEC8FD"/>
<path d="M12.5329 9.41355V10.2466C12.4321 10.2356 12.3325 10.2271 12.2336 10.2212C12.2648 10.1119 12.2772 10.0377 12.2785 10.0279C12.2915 9.94658 12.2362 9.86979 12.1548 9.85612C12.0735 9.8431 11.9967 9.89907 11.983 9.97978C11.983 9.98238 11.9667 10.0748 11.9244 10.2063C11.6875 10.2004 11.4571 10.2063 11.2345 10.2238C11.2417 10.1262 11.2371 10.0182 11.2039 9.90298L11.2013 9.89517C11.1304 9.65892 10.8766 9.52289 10.6234 9.58537C10.4906 9.61791 10.3937 9.68039 10.3247 9.75394C10.255 9.68039 10.1581 9.61791 10.0253 9.58537C9.77277 9.52289 9.51895 9.65892 9.44736 9.89582L9.44541 9.90363C9.38293 10.1223 9.42198 10.3182 9.45061 10.4614C9.46428 10.5284 9.4838 10.5935 9.50919 10.656C9.37121 10.7198 9.23714 10.7894 9.10763 10.8669C8.75943 10.5239 8.66832 9.98563 8.66636 9.97978C8.65335 9.89842 8.57655 9.84245 8.49519 9.85547C8.41384 9.86848 8.35787 9.94528 8.37089 10.0273C8.37544 10.0559 8.47046 10.6221 8.8499 11.0322C8.75683 11.0959 8.66571 11.1643 8.57785 11.2359C7.11609 12.4204 6.74316 14.2499 6.65595 14.8779H6.38911C6.23812 14.8779 6.10535 14.8057 6.02269 14.6794C5.94069 14.5525 5.92832 14.4015 5.99015 14.2642L8.22705 9.23588C8.29669 9.07838 8.45354 8.9762 8.62601 8.9762H12.0956C12.3364 8.9762 12.5323 9.1721 12.5323 9.4129L12.5329 9.41355Z" fill="#AEC8FD"/>
<path d="M9.87979 11.1461C9.78347 11.1519 9.6917 11.1467 9.60449 11.1311C9.65981 11.1038 9.71578 11.0778 9.77306 11.0524C9.8069 11.0862 9.84205 11.1168 9.87979 11.1461Z" fill="#FBD122"/>
<path d="M11.7028 10.673C11.6143 10.8038 11.4998 10.9275 11.354 11.0147C11.1854 11.1162 10.9895 11.1598 10.7695 11.1462C10.9205 11.0284 11.0416 10.8774 11.1203 10.7049C11.3084 10.6847 11.5024 10.6737 11.7028 10.6724V10.673Z" fill="#FBD122"/>
</svg>
